<svg width="160" height="60" viewBox="0 0 160 60" fill="none" xmlns="http://www.w3.org/2000/svg">
<rect width="160" height="60" fill="#FFFBFB"/>
<path fill-rule="evenodd" clip-rule="evenodd" d="M274.248 -189.483C273.336 -187.106 274.279 -180.555 275.596 -180.122C276.496 -179.826 276.846 -181.276 276.846 -185.295C276.846 -190.529 275.489 -192.717 274.248 -189.483ZM281.513 -190.211C281.146 -189.845 280.846 -187.37 280.846 -184.711C280.846 -181.082 281.22 -179.878 282.346 -179.878C283.498 -179.878 283.846 -181.156 283.846 -185.378C283.846 -190.473 283.172 -191.87 281.513 -190.211ZM287.846 -185.378C287.846 -180.539 288.096 -179.78 289.596 -180.068C290.983 -180.335 291.346 -181.437 291.346 -185.378C291.346 -189.319 290.983 -190.421 289.596 -190.688C288.096 -190.976 287.846 -190.217 287.846 -185.378ZM294.711 -187.679C294.12 -182.336 294.795 -179.722 296.673 -180.083C299.072 -180.545 299.107 -190.204 296.711 -190.665C295.518 -190.895 294.978 -190.089 294.711 -187.679ZM301.276 -189.557C300.966 -188.749 300.855 -186.354 301.029 -184.233C301.283 -181.15 301.747 -180.378 303.346 -180.378C305.079 -180.378 305.346 -181.045 305.346 -185.364C305.346 -189.321 304.984 -190.42 303.593 -190.688C302.629 -190.874 301.586 -190.365 301.276 -189.557ZM308.547 -190.246C308.162 -189.86 307.846 -187.37 307.846 -184.711C307.846 -180.196 308.014 -179.878 310.398 -179.878C312.848 -179.878 312.938 -180.088 312.648 -185.119C312.431 -188.892 311.912 -190.442 310.797 -190.653C309.945 -190.815 308.933 -190.632 308.547 -190.246ZM239.846 -132.937C239.846 -96.0551 240.198 -75.7781 240.846 -75.3781C241.508 -74.9691 241.846 -94.2011 241.846 -132.319C241.846 -170.025 241.501 -189.878 240.846 -189.878C240.191 -189.878 239.846 -170.231 239.846 -132.937ZM314.846 -184.985C314.846 -181.446 315.284 -179.924 316.428 -179.485C319.443 -178.328 319.846 -178.905 319.846 -184.378C319.846 -189.578 319.71 -189.878 317.346 -189.878C315.02 -189.878 314.846 -189.538 314.846 -184.985ZM321.731 -185.628C321.492 -178.897 322.361 -176.933 325.596 -176.893C327.588 -176.869 327.278 -187.498 325.264 -188.271C322.427 -189.36 321.848 -188.926 321.731 -185.628ZM328.513 -186.211C328.146 -185.845 327.846 -183.388 327.846 -180.752C327.846 -176.809 328.334 -175.506 330.596 -173.405L333.346 -170.85L333.934 -173.114C334.547 -175.473 334.823 -174.077 336.421 -160.517C337.122 -154.573 335.306 -143.476 333.786 -144.415C333.369 -144.673 331.9 -143.542 330.52 -141.903C328.654 -139.685 328.013 -137.768 328.013 -134.408C328.013 -131.925 328.407 -129.649 328.889 -129.352C330.084 -128.613 333.846 -131.068 333.846 -132.587C333.846 -133.263 334.424 -133.593 335.131 -133.322C337.19 -132.532 342.414 -138.151 345.81 -144.808C347.415 -147.954 347.837 -150.659 347.802 -157.588C347.778 -162.423 347.173 -168.017 346.457 -170.021C344.888 -174.412 338.151 -182.878 336.226 -182.878C335.467 -182.878 333.946 -183.778 332.846 -184.878C330.748 -186.976 329.623 -187.322 328.513 -186.211ZM334.535 -177.128C334.284 -176.165 334.078 -176.953 334.078 -178.878C334.078 -180.803 334.284 -181.591 334.535 -180.628C334.787 -179.665 334.787 -178.091 334.535 -177.128ZM334.552 -136.628C334.313 -135.39 334.118 -136.403 334.118 -138.878C334.118 -141.353 334.313 -142.366 334.552 -141.128C334.79 -139.89 334.79 -137.866 334.552 -136.628ZM323.596 -137.798C322.297 -137.041 321.846 -135.485 321.846 -131.759C321.846 -127.125 322.019 -126.763 324.096 -127.058C326.089 -127.342 326.38 -128.034 326.646 -133.128C326.954 -139.033 326.613 -139.555 323.596 -137.798ZM315.513 -135.211C314.493 -134.192 314.72 -124.878 315.764 -124.878C318.91 -124.878 319.846 -126.279 319.846 -130.985C319.846 -135.063 319.541 -135.878 318.013 -135.878C317.004 -135.878 315.879 -135.578 315.513 -135.211ZM274.291 -133.596C274.021 -132.891 273.922 -124.04 274.073 -113.928C274.275 -100.308 274.67 -95.4351 275.596 -95.1271C276.568 -94.8041 276.846 -99.1731 276.846 -114.795C276.846 -127.924 276.489 -134.878 275.815 -134.878C275.247 -134.878 274.562 -134.301 274.291 -133.596ZM281.513 -134.211C280.472 -133.171 280.725 -96.0711 281.777 -95.4211C282.289 -95.1041 282.936 -95.2151 283.216 -95.6671C283.625 -96.3291 284.185 -126.331 283.915 -133.128C283.845 -134.909 282.718 -135.417 281.513 -134.211ZM287.846 -129.951C287.846 -125.5 288.098 -124.878 289.901 -124.878C291.728 -124.878 291.922 -125.404 291.651 -129.619C291.421 -133.191 290.915 -134.442 289.596 -134.692C288.116 -134.973 287.846 -134.243 287.846 -129.951ZM294.846 -129.951C294.846 -125.5 295.098 -124.878 296.901 -124.878C298.728 -124.878 298.922 -125.404 298.651 -129.619C298.421 -133.191 297.915 -134.442 296.596 -134.692C295.116 -134.973 294.846 -134.243 294.846 -129.951ZM301.273 -133.547C300.96 -132.734 300.849 -130.563 301.026 -128.723C301.276 -126.108 301.85 -125.307 303.654 -125.051C305.825 -124.743 305.944 -125.01 305.654 -129.542C305.421 -133.19 304.92 -134.441 303.593 -134.693C302.629 -134.876 301.585 -134.36 301.273 -133.547ZM307.846 -129.878C307.846 -125.211 308.013 -124.878 310.346 -124.878C312.679 -124.878 312.846 -125.211 312.846 -129.878C312.846 -134.545 312.679 -134.878 310.346 -134.878C308.013 -134.878 307.846 -134.545 307.846 -129.878ZM246.846 -79.8781C246.846 -77.1281 247.296 -74.8781 247.846 -74.8781C248.396 -74.8781 248.846 -77.1281 248.846 -79.8781C248.846 -82.6281 248.396 -84.8781 247.846 -84.8781C247.296 -84.8781 246.846 -82.6281 246.846 -79.8781ZM253.846 -79.8781C253.846 -77.1281 254.296 -74.8781 254.846 -74.8781C255.396 -74.8781 255.846 -77.1281 255.846 -79.8781C255.846 -82.6281 255.396 -84.8781 254.846 -84.8781C254.296 -84.8781 253.846 -82.6281 253.846 -79.8781ZM260.846 -79.8781C260.846 -77.1281 261.296 -74.8781 261.846 -74.8781C262.396 -74.8781 262.846 -77.1281 262.846 -79.8781C262.846 -82.6281 262.396 -84.8781 261.846 -84.8781C261.296 -84.8781 260.846 -82.6281 260.846 -79.8781ZM267.305 -83.6281C266.451 -81.3941 267.352 -75.5431 268.615 -75.1221C269.482 -74.8331 269.846 -76.2151 269.846 -79.7951C269.846 -84.4881 268.443 -86.6041 267.305 -83.6281ZM273.846 -79.8781C273.846 -76.1001 274.213 -74.8781 275.346 -74.8781C276.479 -74.8781 276.846 -76.1001 276.846 -79.8781C276.846 -83.6561 276.479 -84.8781 275.346 -84.8781C274.213 -84.8781 273.846 -83.6561 273.846 -79.8781ZM280.846 -79.8781C280.846 -76.1001 281.213 -74.8781 282.346 -74.8781C283.935 -74.8781 284.028 -75.1541 284.028 -79.8781C284.028 -84.6021 283.935 -84.8781 282.346 -84.8781C281.213 -84.8781 280.846 -83.6561 280.846 -79.8781ZM287.846 -79.8781C287.846 -75.5451 288.113 -74.8781 289.846 -74.8781C291.579 -74.8781 291.846 -75.5451 291.846 -79.8781C291.846 -84.2111 291.579 -84.8781 289.846 -84.8781C288.113 -84.8781 287.846 -84.2111 287.846 -79.8781ZM294.611 -82.4271C293.802 -78.1981 294.861 -74.8781 297.017 -74.8781C298.705 -74.8781 298.916 -75.4901 298.651 -79.6191C298.431 -83.0411 297.894 -84.4461 296.722 -84.6681C295.655 -84.8701 294.931 -84.1021 294.611 -82.4271ZM301.513 -84.2111C301.146 -83.8451 300.846 -81.5951 300.846 -79.2111C300.846 -75.2561 301.064 -74.8781 303.346 -74.8781C305.679 -74.8781 305.846 -75.2111 305.846 -79.8781C305.846 -84.0601 305.546 -84.8781 304.013 -84.8781C303.004 -84.8781 301.879 -84.5781 301.513 -84.2111ZM307.846 -79.8781C307.846 -75.2111 308.013 -74.8781 310.346 -74.8781C312.679 -74.8781 312.846 -75.2111 312.846 -79.8781C312.846 -84.5451 312.679 -84.8781 310.346 -84.8781C308.013 -84.8781 307.846 -84.5451 307.846 -79.8781ZM314.846 -79.8781C314.846 -75.2111 315.013 -74.8781 317.346 -74.8781C319.679 -74.8781 319.846 -75.2111 319.846 -79.8781C319.846 -84.5451 319.679 -84.8781 317.346 -84.8781C315.013 -84.8781 314.846 -84.5451 314.846 -79.8781ZM321.846 -79.8781C321.846 -75.2111 322.013 -74.8781 324.346 -74.8781C326.679 -74.8781 326.846 -75.2111 326.846 -79.8781C326.846 -84.5451 326.679 -84.8781 324.346 -84.8781C322.013 -84.8781 321.846 -84.5451 321.846 -79.8781ZM328.17 -79.8781L328.031 -74.8781H337.939H347.846V-79.8781V-84.8781H338.077H328.309L328.17 -79.8781ZM334.508 -79.6281C334.231 -78.9401 334.004 -79.5031 334.004 -80.8781C334.004 -82.2531 334.231 -82.8151 334.508 -82.1281C334.786 -81.4401 334.786 -80.3151 334.508 -79.6281ZM429.841 0.472885C420.91 2.88289 413.286 9.97988 409.278 19.6139C407.114 24.8149 407.707 36.9569 410.402 42.6219C412.989 48.0609 419.96 54.8289 425.65 57.4249C431.769 60.2169 442.465 60.3799 448.846 57.7789C459.737 53.3389 466.787 43.7319 467.602 32.2219C468.169 24.2039 466.872 19.0139 462.744 12.7819C458.801 6.82888 452.655 2.56787 445.219 0.630875C438.414 -1.14113 435.918 -1.16711 429.841 0.472885ZM0.216825 1.59789C-0.00517473 2.17589 -0.0671834 15.2429 0.0798166 30.6349L0.345823 58.6219L18.8458 58.9059C29.0208 59.0629 38.3018 58.9559 39.4698 58.6689C41.0098 58.2909 42.5068 55.9349 44.9138 50.1069L48.2328 42.0669L61.2588 42.3439L74.2848 42.6219L77.3248 49.9149C80.4988 57.5259 81.8878 59.0809 85.5368 59.1069C88.9688 59.1309 89.1518 57.5649 86.4418 51.3749C83.7718 45.2759 74.4228 23.1079 68.7468 9.41988C65.3008 1.10788 64.4148 0.274881 59.7318 0.937881C57.3658 1.27388 56.3788 3.07586 49.3088 19.9649C45.0138 30.2269 40.2498 41.4469 38.7228 44.8999L35.9458 51.1779L21.6508 50.8999L7.35483 50.6219L7.69182 26.4869C7.95582 7.56486 7.74882 2.17989 6.73782 1.55489C4.81582 0.366886 0.678825 0.393885 0.216825 1.59789ZM89.5958 0.877884C88.6338 1.09288 87.8668 2.02287 87.8928 2.94487C87.9188 3.86687 91.4158 16.7679 95.6638 31.6119C103.828 60.1429 103.807 60.1019 109.302 58.7219C111.345 58.2099 112.239 55.8739 117.389 37.5999C120.573 26.2999 123.514 17.4069 123.924 17.8379C124.335 18.2689 126.977 26.9469 129.797 37.1219C132.616 47.2969 135.288 56.2969 135.735 57.1219C136.784 59.0579 142.202 59.6119 143.571 57.9229C144.498 56.7789 159.846 4.16487 159.846 2.12987C159.846 1.04787 155.335 -0.00312388 153.581 0.669876C152.713 1.00288 149.894 9.21187 146.369 21.6689C143.186 32.9179 140.282 42.1219 139.917 42.1219C139.551 42.1219 137.292 35.0349 134.897 26.3719C127.85 0.891872 128.033 1.40386 125.744 0.805862C120.518 -0.561138 119.821 0.671875 113.71 22.0879C110.525 33.2499 107.7 42.6019 107.431 42.8699C107.163 43.1379 106.655 42.2099 106.303 40.8069C105.951 39.4039 103.333 30.0619 100.485 20.0459C95.1188 1.17488 94.3488 -0.181116 89.5958 0.877884ZM383.126 0.893875L364.906 1.16689L364.626 29.6449L364.346 58.1229H368.061L371.776 58.1219L372.061 47.8719L372.346 37.6219L384.596 37.3409L396.846 37.0599V33.5909V30.1219L385.596 30.1069C379.409 30.0979 373.766 29.7239 373.058 29.2739C372.115 28.6759 371.847 25.7999 372.058 18.5389L372.346 8.62187L387.596 8.34587L402.846 8.06987V4.65486C402.846 2.77686 402.509 1.10086 402.096 0.930862C401.683 0.760862 393.147 0.744875 383.126 0.893875ZM178.846 29.5499V58.1219H182.306H185.765L186.056 49.8719L186.346 41.6219L197.08 41.0729C206.938 40.5679 208.161 40.2799 212.071 37.5309C218.635 32.9179 220.993 28.0539 220.606 19.9279C220.334 14.2269 219.838 12.6799 217.259 9.49287C211.134 1.92587 210.366 1.65788 193.777 1.29988L178.846 0.977859V29.5499ZM229.721 3.12187C229.652 4.22187 229.596 5.79687 229.596 6.62187C229.596 7.44687 229.652 19.3719 229.721 33.1219L229.846 58.1219H250.664H271.482L274.785 50.1219L278.088 42.1219H291.039H303.99L307.588 50.1219C310.344 56.2509 311.672 58.1499 313.266 58.2399C315.47 58.3659 318.181 58.0889 318.593 57.6959C318.729 57.5669 313.542 44.8969 307.067 29.5409L295.293 1.62187L291.319 1.33488L287.346 1.04787L278.418 22.3349C273.507 34.0429 268.654 45.3219 267.633 47.3989L265.778 51.1759L251.562 50.8989L237.346 50.6219L237.079 25.8719L236.811 1.12187H233.329C230.554 1.12187 229.821 1.52887 229.721 3.12187ZM317.033 4.37187L317.346 7.62187L325.596 7.91188L333.846 8.20287V33.0489V57.8949L336.823 58.3319C338.46 58.5719 340.252 58.4889 340.805 58.1479C341.421 57.7659 341.913 48.0809 342.078 33.0739L342.346 8.62187L350.596 8.33186L358.846 8.04088V4.58186V1.12187H337.783H316.719L317.033 4.37187ZM476.626 29.6229L476.346 58.1229H480.061L483.776 58.1219L484.061 47.8719L484.346 37.6219L488.879 37.3259C494.111 36.9849 494.298 37.1449 503.262 49.6219C508.433 56.8189 509.402 57.6789 512.917 58.1879C515.066 58.4989 517.242 58.4949 517.754 58.1789C518.265 57.8629 515.57 53.3839 511.765 48.2259C507.959 43.0669 504.846 38.4989 504.846 38.0739C504.846 37.6479 506.762 36.3729 509.105 35.2389C521.542 29.2179 522.37 10.6159 510.51 3.66487C506.396 1.25487 505.408 1.12187 491.538 1.12187H476.906L476.626 29.6229ZM523.846 29.6219C523.846 47.8809 524.205 58.1619 524.846 58.2329C525.396 58.2939 526.746 58.3439 527.846 58.3439C528.946 58.3439 530.29 58.2939 530.832 58.2329C531.446 58.1639 531.795 50.5379 531.758 38.0289C531.725 26.9779 531.9 17.7339 532.147 17.4869C532.394 17.2409 536.522 23.3569 541.32 31.0799C546.118 38.8029 550.337 45.1069 550.695 45.0879C551.053 45.0689 555.171 38.7899 559.846 31.1349C564.521 23.4789 568.683 17.1949 569.096 17.1689C569.509 17.1429 569.846 26.3139 569.846 37.5489C569.846 59.7999 569.722 59.3519 575.596 58.2939L577.846 57.8889V29.4479V1.00688L573.612 1.31487L569.378 1.62187L560.641 15.5429C555.836 23.1999 551.515 29.8529 551.04 30.3279C550.556 30.8119 546.122 24.5969 540.933 16.1569L531.69 1.12187H527.768H523.846V29.6219ZM447.23 9.17186C452.391 11.5979 454.878 14.1049 457.865 19.8929C461.023 26.0099 460.425 36.1369 456.563 41.9739C450.977 50.4139 439.896 54.2739 430.321 51.1139C421.178 48.0959 413.976 36.5599 415.347 27.1289C416.52 19.0629 422.62 11.1299 429.876 8.23488C434.187 6.51388 442.534 6.96486 447.23 9.17186ZM206.387 10.1419C212.072 12.8939 214.68 18.3959 212.984 24.0569C212.338 26.2119 210.433 29.1329 208.751 30.5479C205.915 32.9349 204.971 33.1219 195.769 33.1219H185.846V21.2889C185.846 14.7799 186.146 9.15486 186.513 8.78886C186.879 8.42186 190.562 8.12187 194.697 8.12187C200.196 8.12187 203.335 8.66486 206.387 10.1419ZM506.535 10.0739C513.978 14.6119 512.353 26.7759 503.993 29.0979C499.994 30.2089 487.941 30.4789 485.428 29.5149C484.135 29.0189 483.846 27.1279 483.846 19.1819C483.846 13.8319 484.146 9.15486 484.513 8.78886C484.879 8.42186 489.267 8.12387 494.263 8.12587C501.495 8.12887 503.996 8.52587 506.535 10.0739ZM295.749 22.1219C298 27.3469 299.842 32.1849 299.844 32.8719C299.845 33.7799 297.381 34.1219 290.846 34.1219C285.896 34.1219 281.846 33.9369 281.846 33.7109C281.846 33.4839 283.464 29.5469 285.441 24.9609C287.418 20.3739 289.456 15.5469 289.969 14.2329C290.482 12.9199 291.072 12.0199 291.28 12.2329C291.487 12.4469 293.499 16.8969 295.749 22.1219ZM66.4548 23.9299L70.7168 34.1219H61.1978C55.9628 34.1219 51.8288 33.7609 52.0128 33.3199C52.1958 32.8779 54.1458 28.1599 56.3458 22.8349C58.5458 17.5099 60.7608 13.2839 61.2688 13.4449C61.7768 13.6059 64.1098 18.3239 66.4548 23.9299Z" fill="#910D0D"/>
</svg>
