<svg width="577" height="251" viewBox="0 0 577 251" fill="none" xmlns="http://www.w3.org/2000/svg">
<mask id="path-1-inside-1_280_16" fill="white">
<path fill-rule="evenodd" clip-rule="evenodd" d="M273.248 1.51687C272.336 3.89387 273.279 10.4449 274.596 10.8779C275.496 11.1739 275.846 9.72386 275.846 5.70486C275.846 0.470858 274.489 -1.71713 273.248 1.51687ZM280.513 0.788873C280.146 1.15487 279.846 3.62987 279.846 6.28887C279.846 9.91787 280.22 11.1219 281.346 11.1219C282.498 11.1219 282.846 9.84387 282.846 5.62187C282.846 0.526865 282.172 -0.870127 280.513 0.788873ZM286.846 5.62187C286.846 10.4609 287.096 11.2199 288.596 10.9319C289.983 10.6649 290.346 9.56287 290.346 5.62187C290.346 1.68087 289.983 0.578868 288.596 0.311868C287.096 0.0238678 286.846 0.782865 286.846 5.62187ZM293.711 3.32087C293.12 8.66387 293.795 11.2779 295.673 10.9169C298.072 10.4549 298.107 0.795863 295.711 0.334863C294.518 0.104863 293.978 0.91087 293.711 3.32087ZM300.276 1.44286C299.966 2.25086 299.855 4.64587 300.029 6.76687C300.283 9.84987 300.747 10.6219 302.346 10.6219C304.079 10.6219 304.346 9.95487 304.346 5.63587C304.346 1.67887 303.984 0.579868 302.593 0.311868C301.629 0.125868 300.586 0.634865 300.276 1.44286ZM307.547 0.753869C307.162 1.13987 306.846 3.62987 306.846 6.28887C306.846 10.8039 307.014 11.1219 309.398 11.1219C311.848 11.1219 311.938 10.9119 311.648 5.88087C311.431 2.10787 310.912 0.557871 309.797 0.346871C308.945 0.184871 307.933 0.367869 307.547 0.753869ZM238.846 58.0629C238.846 94.9449 239.198 115.222 239.846 115.622C240.508 116.031 240.846 96.7989 240.846 58.6809C240.846 20.9749 240.501 1.12187 239.846 1.12187C239.191 1.12187 238.846 20.7689 238.846 58.0629ZM313.846 6.01487C313.846 9.55387 314.284 11.0759 315.428 11.5149C318.443 12.6719 318.846 12.0949 318.846 6.62187C318.846 1.42187 318.71 1.12187 316.346 1.12187C314.02 1.12187 313.846 1.46187 313.846 6.01487ZM320.731 5.37187C320.492 12.1029 321.361 14.0669 324.596 14.1069C326.588 14.1309 326.278 3.50186 324.264 2.72886C321.427 1.63986 320.848 2.07387 320.731 5.37187ZM327.513 4.78887C327.146 5.15487 326.846 7.61187 326.846 10.2479C326.846 14.1909 327.334 15.4939 329.596 17.5949L332.346 20.1499L332.934 17.8859C333.547 15.5269 333.823 16.9229 335.421 30.4829C336.122 36.4269 334.306 47.5239 332.786 46.5849C332.369 46.3269 330.9 47.4579 329.52 49.0969C327.654 51.3149 327.013 53.2319 327.013 56.5919C327.013 59.0749 327.407 61.3509 327.889 61.6479C329.084 62.3869 332.846 59.9319 332.846 58.4129C332.846 57.7369 333.424 57.4069 334.131 57.6779C336.19 58.4679 341.414 52.8489 344.81 46.1919C346.415 43.0459 346.837 40.3409 346.802 33.4119C346.778 28.5769 346.173 22.9829 345.457 20.9789C343.888 16.5879 337.151 8.12187 335.226 8.12187C334.467 8.12187 332.946 7.22187 331.846 6.12187C329.748 4.02387 328.623 3.67787 327.513 4.78887ZM333.535 13.8719C333.284 14.8349 333.078 14.0469 333.078 12.1219C333.078 10.1969 333.284 9.40887 333.535 10.3719C333.787 11.3349 333.787 12.9089 333.535 13.8719ZM333.552 54.3719C333.313 55.6099 333.118 54.5969 333.118 52.1219C333.118 49.6469 333.313 48.6339 333.552 49.8719C333.79 51.1099 333.79 53.1339 333.552 54.3719ZM322.596 53.2019C321.297 53.9589 320.846 55.5149 320.846 59.2409C320.846 63.8749 321.019 64.2369 323.096 63.9419C325.089 63.6579 325.38 62.9659 325.646 57.8719C325.954 51.9669 325.613 51.4449 322.596 53.2019ZM314.513 55.7889C313.493 56.8079 313.72 66.1219 314.764 66.1219C317.91 66.1219 318.846 64.7209 318.846 60.0149C318.846 55.9369 318.541 55.1219 317.013 55.1219C316.004 55.1219 314.879 55.4219 314.513 55.7889ZM273.291 57.4039C273.021 58.1089 272.922 66.9599 273.073 77.0719C273.275 90.6919 273.67 95.5649 274.596 95.8729C275.568 96.1959 275.846 91.8269 275.846 76.2049C275.846 63.0759 275.489 56.1219 274.815 56.1219C274.247 56.1219 273.562 56.6989 273.291 57.4039ZM280.513 56.7889C279.472 57.8289 279.725 94.9289 280.777 95.5789C281.289 95.8959 281.936 95.7849 282.216 95.3329C282.625 94.6709 283.185 64.6689 282.915 57.8719C282.845 56.0909 281.718 55.5829 280.513 56.7889ZM286.846 61.0489C286.846 65.4999 287.098 66.1219 288.901 66.1219C290.728 66.1219 290.922 65.5959 290.651 61.3809C290.421 57.8089 289.915 56.5579 288.596 56.3079C287.116 56.0269 286.846 56.7569 286.846 61.0489ZM293.846 61.0489C293.846 65.4999 294.098 66.1219 295.901 66.1219C297.728 66.1219 297.922 65.5959 297.651 61.3809C297.421 57.8089 296.915 56.5579 295.596 56.3079C294.116 56.0269 293.846 56.7569 293.846 61.0489ZM300.273 57.4529C299.96 58.2659 299.849 60.4369 300.026 62.2769C300.276 64.8919 300.85 65.6929 302.654 65.9489C304.825 66.2569 304.944 65.9899 304.654 61.4579C304.421 57.8099 303.92 56.5589 302.593 56.3069C301.629 56.1239 300.585 56.6399 300.273 57.4529ZM306.846 61.1219C306.846 65.7889 307.013 66.1219 309.346 66.1219C311.679 66.1219 311.846 65.7889 311.846 61.1219C311.846 56.4549 311.679 56.1219 309.346 56.1219C307.013 56.1219 306.846 56.4549 306.846 61.1219ZM245.846 111.122C245.846 113.872 246.296 116.122 246.846 116.122C247.396 116.122 247.846 113.872 247.846 111.122C247.846 108.372 247.396 106.122 246.846 106.122C246.296 106.122 245.846 108.372 245.846 111.122ZM252.846 111.122C252.846 113.872 253.296 116.122 253.846 116.122C254.396 116.122 254.846 113.872 254.846 111.122C254.846 108.372 254.396 106.122 253.846 106.122C253.296 106.122 252.846 108.372 252.846 111.122ZM259.846 111.122C259.846 113.872 260.296 116.122 260.846 116.122C261.396 116.122 261.846 113.872 261.846 111.122C261.846 108.372 261.396 106.122 260.846 106.122C260.296 106.122 259.846 108.372 259.846 111.122ZM266.305 107.372C265.451 109.606 266.352 115.457 267.615 115.878C268.482 116.167 268.846 114.785 268.846 111.205C268.846 106.512 267.443 104.396 266.305 107.372ZM272.846 111.122C272.846 114.9 273.213 116.122 274.346 116.122C275.479 116.122 275.846 114.9 275.846 111.122C275.846 107.344 275.479 106.122 274.346 106.122C273.213 106.122 272.846 107.344 272.846 111.122ZM279.846 111.122C279.846 114.9 280.213 116.122 281.346 116.122C282.935 116.122 283.028 115.846 283.028 111.122C283.028 106.398 282.935 106.122 281.346 106.122C280.213 106.122 279.846 107.344 279.846 111.122ZM286.846 111.122C286.846 115.455 287.113 116.122 288.846 116.122C290.579 116.122 290.846 115.455 290.846 111.122C290.846 106.789 290.579 106.122 288.846 106.122C287.113 106.122 286.846 106.789 286.846 111.122ZM293.611 108.573C292.802 112.802 293.861 116.122 296.017 116.122C297.705 116.122 297.916 115.51 297.651 111.381C297.431 107.959 296.894 106.554 295.722 106.332C294.655 106.13 293.931 106.898 293.611 108.573ZM300.513 106.789C300.146 107.155 299.846 109.405 299.846 111.789C299.846 115.744 300.064 116.122 302.346 116.122C304.679 116.122 304.846 115.789 304.846 111.122C304.846 106.94 304.546 106.122 303.013 106.122C302.004 106.122 300.879 106.422 300.513 106.789ZM306.846 111.122C306.846 115.789 307.013 116.122 309.346 116.122C311.679 116.122 311.846 115.789 311.846 111.122C311.846 106.455 311.679 106.122 309.346 106.122C307.013 106.122 306.846 106.455 306.846 111.122ZM313.846 111.122C313.846 115.789 314.013 116.122 316.346 116.122C318.679 116.122 318.846 115.789 318.846 111.122C318.846 106.455 318.679 106.122 316.346 106.122C314.013 106.122 313.846 106.455 313.846 111.122ZM320.846 111.122C320.846 115.789 321.013 116.122 323.346 116.122C325.679 116.122 325.846 115.789 325.846 111.122C325.846 106.455 325.679 106.122 323.346 106.122C321.013 106.122 320.846 106.455 320.846 111.122ZM327.17 111.122L327.031 116.122H336.939H346.846V111.122V106.122H337.077H327.309L327.17 111.122ZM333.508 111.372C333.231 112.06 333.004 111.497 333.004 110.122C333.004 108.747 333.231 108.185 333.508 108.872C333.786 109.56 333.786 110.685 333.508 111.372ZM428.841 191.473C419.91 193.883 412.286 200.98 408.278 210.614C406.114 215.815 406.707 227.957 409.402 233.622C411.989 239.061 418.96 245.829 424.65 248.425C430.769 251.217 441.465 251.38 447.846 248.779C458.737 244.339 465.787 234.732 466.602 223.222C467.169 215.204 465.872 210.014 461.744 203.782C457.801 197.829 451.655 193.568 444.219 191.631C437.414 189.859 434.918 189.833 428.841 191.473ZM382.126 191.894L363.906 192.167L363.626 220.645L363.346 249.123H367.061L370.776 249.122L371.061 238.872L371.346 228.622L383.596 228.341L395.846 228.06V224.591V221.122L384.596 221.107C378.409 221.098 372.766 220.724 372.058 220.274C371.115 219.676 370.847 216.8 371.058 209.539L371.346 199.622L386.596 199.346L401.846 199.07V195.655C401.846 193.777 401.509 192.101 401.096 191.931C400.683 191.761 392.147 191.745 382.126 191.894ZM177.846 220.55V249.122H181.306H184.765L185.056 240.872L185.346 232.622L196.08 232.073C205.938 231.568 207.161 231.28 211.071 228.531C217.635 223.918 219.993 219.054 219.606 210.928C219.334 205.227 218.838 203.68 216.259 200.493C210.134 192.926 209.366 192.658 192.777 192.3L177.846 191.978V220.55ZM228.721 194.122C228.652 195.222 228.596 196.797 228.596 197.622C228.596 198.447 228.652 210.372 228.721 224.122L228.846 249.122H249.664H270.482L273.785 241.122L277.088 233.122H290.039H302.99L306.588 241.122C309.344 247.251 310.672 249.15 312.266 249.24C314.47 249.366 317.181 249.089 317.593 248.696C317.729 248.567 312.542 235.897 306.067 220.541L294.293 192.622L290.319 192.335L286.346 192.048L277.418 213.335C272.507 225.043 267.654 236.322 266.633 238.399L264.778 242.176L250.562 241.899L236.346 241.622L236.079 216.872L235.811 192.122H232.329C229.554 192.122 228.821 192.529 228.721 194.122ZM316.033 195.372L316.346 198.622L324.596 198.912L332.846 199.203V224.049V248.895L335.823 249.332C337.46 249.572 339.252 249.489 339.805 249.148C340.421 248.766 340.913 239.081 341.078 224.074L341.346 199.622L349.596 199.332L357.846 199.041V195.582V192.122H336.783H315.719L316.033 195.372ZM475.626 220.623L475.346 249.123H479.061L482.776 249.122L483.061 238.872L483.346 228.622L487.879 228.326C493.111 227.985 493.298 228.145 502.262 240.622C507.433 247.819 508.402 248.679 511.917 249.188C514.066 249.499 516.242 249.495 516.754 249.179C517.265 248.863 514.57 244.384 510.765 239.226C506.959 234.067 503.846 229.499 503.846 229.074C503.846 228.648 505.762 227.373 508.105 226.239C520.542 220.218 521.37 201.616 509.51 194.665C505.396 192.255 504.408 192.122 490.538 192.122H475.906L475.626 220.623ZM522.846 220.622C522.846 238.881 523.205 249.162 523.846 249.233C524.396 249.294 525.746 249.344 526.846 249.344C527.946 249.344 529.29 249.294 529.832 249.233C530.446 249.164 530.795 241.538 530.758 229.029C530.725 217.978 530.9 208.734 531.147 208.487C531.394 208.241 535.522 214.357 540.32 222.08C545.118 229.803 549.337 236.107 549.695 236.088C550.053 236.069 554.171 229.79 558.846 222.135C563.521 214.479 567.683 208.195 568.096 208.169C568.509 208.143 568.846 217.314 568.846 228.549C568.846 250.8 568.722 250.352 574.596 249.294L576.846 248.889V220.448V192.007L572.612 192.315L568.378 192.622L559.641 206.543C554.836 214.2 550.515 220.853 550.04 221.328C549.556 221.812 545.122 215.597 539.933 207.157L530.69 192.122H526.768H522.846V220.622ZM446.23 200.172C451.391 202.598 453.878 205.105 456.865 210.893C460.023 217.01 459.425 227.137 455.563 232.974C449.977 241.414 438.896 245.274 429.321 242.114C420.178 239.096 412.976 227.56 414.347 218.129C415.52 210.063 421.62 202.13 428.876 199.235C433.187 197.514 441.534 197.965 446.23 200.172ZM205.387 201.142C211.072 203.894 213.68 209.396 211.984 215.057C211.338 217.212 209.433 220.133 207.751 221.548C204.915 223.935 203.971 224.122 194.769 224.122H184.846V212.289C184.846 205.78 185.146 200.155 185.513 199.789C185.879 199.422 189.562 199.122 193.697 199.122C199.196 199.122 202.335 199.665 205.387 201.142ZM505.535 201.074C512.978 205.612 511.353 217.776 502.993 220.098C498.994 221.209 486.941 221.479 484.428 220.515C483.135 220.019 482.846 218.128 482.846 210.182C482.846 204.832 483.146 200.155 483.513 199.789C483.879 199.422 488.267 199.124 493.263 199.126C500.495 199.129 502.996 199.526 505.535 201.074ZM294.749 213.122C297 218.347 298.842 223.185 298.844 223.872C298.845 224.78 296.381 225.122 289.846 225.122C284.896 225.122 280.846 224.937 280.846 224.711C280.846 224.484 282.464 220.547 284.441 215.961C286.418 211.374 288.456 206.547 288.969 205.233C289.482 203.92 290.072 203.02 290.28 203.233C290.487 203.447 292.499 207.897 294.749 213.122Z"/>
</mask>
<path fill-rule="evenodd" clip-rule="evenodd" d="M273.248 1.51687C272.336 3.89387 273.279 10.4449 274.596 10.8779C275.496 11.1739 275.846 9.72386 275.846 5.70486C275.846 0.470858 274.489 -1.71713 273.248 1.51687ZM280.513 0.788873C280.146 1.15487 279.846 3.62987 279.846 6.28887C279.846 9.91787 280.22 11.1219 281.346 11.1219C282.498 11.1219 282.846 9.84387 282.846 5.62187C282.846 0.526865 282.172 -0.870127 280.513 0.788873ZM286.846 5.62187C286.846 10.4609 287.096 11.2199 288.596 10.9319C289.983 10.6649 290.346 9.56287 290.346 5.62187C290.346 1.68087 289.983 0.578868 288.596 0.311868C287.096 0.0238678 286.846 0.782865 286.846 5.62187ZM293.711 3.32087C293.12 8.66387 293.795 11.2779 295.673 10.9169C298.072 10.4549 298.107 0.795863 295.711 0.334863C294.518 0.104863 293.978 0.91087 293.711 3.32087ZM300.276 1.44286C299.966 2.25086 299.855 4.64587 300.029 6.76687C300.283 9.84987 300.747 10.6219 302.346 10.6219C304.079 10.6219 304.346 9.95487 304.346 5.63587C304.346 1.67887 303.984 0.579868 302.593 0.311868C301.629 0.125868 300.586 0.634865 300.276 1.44286ZM307.547 0.753869C307.162 1.13987 306.846 3.62987 306.846 6.28887C306.846 10.8039 307.014 11.1219 309.398 11.1219C311.848 11.1219 311.938 10.9119 311.648 5.88087C311.431 2.10787 310.912 0.557871 309.797 0.346871C308.945 0.184871 307.933 0.367869 307.547 0.753869ZM238.846 58.0629C238.846 94.9449 239.198 115.222 239.846 115.622C240.508 116.031 240.846 96.7989 240.846 58.6809C240.846 20.9749 240.501 1.12187 239.846 1.12187C239.191 1.12187 238.846 20.7689 238.846 58.0629ZM313.846 6.01487C313.846 9.55387 314.284 11.0759 315.428 11.5149C318.443 12.6719 318.846 12.0949 318.846 6.62187C318.846 1.42187 318.71 1.12187 316.346 1.12187C314.02 1.12187 313.846 1.46187 313.846 6.01487ZM320.731 5.37187C320.492 12.1029 321.361 14.0669 324.596 14.1069C326.588 14.1309 326.278 3.50186 324.264 2.72886C321.427 1.63986 320.848 2.07387 320.731 5.37187ZM327.513 4.78887C327.146 5.15487 326.846 7.61187 326.846 10.2479C326.846 14.1909 327.334 15.4939 329.596 17.5949L332.346 20.1499L332.934 17.8859C333.547 15.5269 333.823 16.9229 335.421 30.4829C336.122 36.4269 334.306 47.5239 332.786 46.5849C332.369 46.3269 330.9 47.4579 329.52 49.0969C327.654 51.3149 327.013 53.2319 327.013 56.5919C327.013 59.0749 327.407 61.3509 327.889 61.6479C329.084 62.3869 332.846 59.9319 332.846 58.4129C332.846 57.7369 333.424 57.4069 334.131 57.6779C336.19 58.4679 341.414 52.8489 344.81 46.1919C346.415 43.0459 346.837 40.3409 346.802 33.4119C346.778 28.5769 346.173 22.9829 345.457 20.9789C343.888 16.5879 337.151 8.12187 335.226 8.12187C334.467 8.12187 332.946 7.22187 331.846 6.12187C329.748 4.02387 328.623 3.67787 327.513 4.78887ZM333.535 13.8719C333.284 14.8349 333.078 14.0469 333.078 12.1219C333.078 10.1969 333.284 9.40887 333.535 10.3719C333.787 11.3349 333.787 12.9089 333.535 13.8719ZM333.552 54.3719C333.313 55.6099 333.118 54.5969 333.118 52.1219C333.118 49.6469 333.313 48.6339 333.552 49.8719C333.79 51.1099 333.79 53.1339 333.552 54.3719ZM322.596 53.2019C321.297 53.9589 320.846 55.5149 320.846 59.2409C320.846 63.8749 321.019 64.2369 323.096 63.9419C325.089 63.6579 325.38 62.9659 325.646 57.8719C325.954 51.9669 325.613 51.4449 322.596 53.2019ZM314.513 55.7889C313.493 56.8079 313.72 66.1219 314.764 66.1219C317.91 66.1219 318.846 64.7209 318.846 60.0149C318.846 55.9369 318.541 55.1219 317.013 55.1219C316.004 55.1219 314.879 55.4219 314.513 55.7889ZM273.291 57.4039C273.021 58.1089 272.922 66.9599 273.073 77.0719C273.275 90.6919 273.67 95.5649 274.596 95.8729C275.568 96.1959 275.846 91.8269 275.846 76.2049C275.846 63.0759 275.489 56.1219 274.815 56.1219C274.247 56.1219 273.562 56.6989 273.291 57.4039ZM280.513 56.7889C279.472 57.8289 279.725 94.9289 280.777 95.5789C281.289 95.8959 281.936 95.7849 282.216 95.3329C282.625 94.6709 283.185 64.6689 282.915 57.8719C282.845 56.0909 281.718 55.5829 280.513 56.7889ZM286.846 61.0489C286.846 65.4999 287.098 66.1219 288.901 66.1219C290.728 66.1219 290.922 65.5959 290.651 61.3809C290.421 57.8089 289.915 56.5579 288.596 56.3079C287.116 56.0269 286.846 56.7569 286.846 61.0489ZM293.846 61.0489C293.846 65.4999 294.098 66.1219 295.901 66.1219C297.728 66.1219 297.922 65.5959 297.651 61.3809C297.421 57.8089 296.915 56.5579 295.596 56.3079C294.116 56.0269 293.846 56.7569 293.846 61.0489ZM300.273 57.4529C299.96 58.2659 299.849 60.4369 300.026 62.2769C300.276 64.8919 300.85 65.6929 302.654 65.9489C304.825 66.2569 304.944 65.9899 304.654 61.4579C304.421 57.8099 303.92 56.5589 302.593 56.3069C301.629 56.1239 300.585 56.6399 300.273 57.4529ZM306.846 61.1219C306.846 65.7889 307.013 66.1219 309.346 66.1219C311.679 66.1219 311.846 65.7889 311.846 61.1219C311.846 56.4549 311.679 56.1219 309.346 56.1219C307.013 56.1219 306.846 56.4549 306.846 61.1219ZM245.846 111.122C245.846 113.872 246.296 116.122 246.846 116.122C247.396 116.122 247.846 113.872 247.846 111.122C247.846 108.372 247.396 106.122 246.846 106.122C246.296 106.122 245.846 108.372 245.846 111.122ZM252.846 111.122C252.846 113.872 253.296 116.122 253.846 116.122C254.396 116.122 254.846 113.872 254.846 111.122C254.846 108.372 254.396 106.122 253.846 106.122C253.296 106.122 252.846 108.372 252.846 111.122ZM259.846 111.122C259.846 113.872 260.296 116.122 260.846 116.122C261.396 116.122 261.846 113.872 261.846 111.122C261.846 108.372 261.396 106.122 260.846 106.122C260.296 106.122 259.846 108.372 259.846 111.122ZM266.305 107.372C265.451 109.606 266.352 115.457 267.615 115.878C268.482 116.167 268.846 114.785 268.846 111.205C268.846 106.512 267.443 104.396 266.305 107.372ZM272.846 111.122C272.846 114.9 273.213 116.122 274.346 116.122C275.479 116.122 275.846 114.9 275.846 111.122C275.846 107.344 275.479 106.122 274.346 106.122C273.213 106.122 272.846 107.344 272.846 111.122ZM279.846 111.122C279.846 114.9 280.213 116.122 281.346 116.122C282.935 116.122 283.028 115.846 283.028 111.122C283.028 106.398 282.935 106.122 281.346 106.122C280.213 106.122 279.846 107.344 279.846 111.122ZM286.846 111.122C286.846 115.455 287.113 116.122 288.846 116.122C290.579 116.122 290.846 115.455 290.846 111.122C290.846 106.789 290.579 106.122 288.846 106.122C287.113 106.122 286.846 106.789 286.846 111.122ZM293.611 108.573C292.802 112.802 293.861 116.122 296.017 116.122C297.705 116.122 297.916 115.51 297.651 111.381C297.431 107.959 296.894 106.554 295.722 106.332C294.655 106.13 293.931 106.898 293.611 108.573ZM300.513 106.789C300.146 107.155 299.846 109.405 299.846 111.789C299.846 115.744 300.064 116.122 302.346 116.122C304.679 116.122 304.846 115.789 304.846 111.122C304.846 106.94 304.546 106.122 303.013 106.122C302.004 106.122 300.879 106.422 300.513 106.789ZM306.846 111.122C306.846 115.789 307.013 116.122 309.346 116.122C311.679 116.122 311.846 115.789 311.846 111.122C311.846 106.455 311.679 106.122 309.346 106.122C307.013 106.122 306.846 106.455 306.846 111.122ZM313.846 111.122C313.846 115.789 314.013 116.122 316.346 116.122C318.679 116.122 318.846 115.789 318.846 111.122C318.846 106.455 318.679 106.122 316.346 106.122C314.013 106.122 313.846 106.455 313.846 111.122ZM320.846 111.122C320.846 115.789 321.013 116.122 323.346 116.122C325.679 116.122 325.846 115.789 325.846 111.122C325.846 106.455 325.679 106.122 323.346 106.122C321.013 106.122 320.846 106.455 320.846 111.122ZM327.17 111.122L327.031 116.122H336.939H346.846V111.122V106.122H337.077H327.309L327.17 111.122ZM333.508 111.372C333.231 112.06 333.004 111.497 333.004 110.122C333.004 108.747 333.231 108.185 333.508 108.872C333.786 109.56 333.786 110.685 333.508 111.372ZM428.841 191.473C419.91 193.883 412.286 200.98 408.278 210.614C406.114 215.815 406.707 227.957 409.402 233.622C411.989 239.061 418.96 245.829 424.65 248.425C430.769 251.217 441.465 251.38 447.846 248.779C458.737 244.339 465.787 234.732 466.602 223.222C467.169 215.204 465.872 210.014 461.744 203.782C457.801 197.829 451.655 193.568 444.219 191.631C437.414 189.859 434.918 189.833 428.841 191.473ZM382.126 191.894L363.906 192.167L363.626 220.645L363.346 249.123H367.061L370.776 249.122L371.061 238.872L371.346 228.622L383.596 228.341L395.846 228.06V224.591V221.122L384.596 221.107C378.409 221.098 372.766 220.724 372.058 220.274C371.115 219.676 370.847 216.8 371.058 209.539L371.346 199.622L386.596 199.346L401.846 199.07V195.655C401.846 193.777 401.509 192.101 401.096 191.931C400.683 191.761 392.147 191.745 382.126 191.894ZM177.846 220.55V249.122H181.306H184.765L185.056 240.872L185.346 232.622L196.08 232.073C205.938 231.568 207.161 231.28 211.071 228.531C217.635 223.918 219.993 219.054 219.606 210.928C219.334 205.227 218.838 203.68 216.259 200.493C210.134 192.926 209.366 192.658 192.777 192.3L177.846 191.978V220.55ZM228.721 194.122C228.652 195.222 228.596 196.797 228.596 197.622C228.596 198.447 228.652 210.372 228.721 224.122L228.846 249.122H249.664H270.482L273.785 241.122L277.088 233.122H290.039H302.99L306.588 241.122C309.344 247.251 310.672 249.15 312.266 249.24C314.47 249.366 317.181 249.089 317.593 248.696C317.729 248.567 312.542 235.897 306.067 220.541L294.293 192.622L290.319 192.335L286.346 192.048L277.418 213.335C272.507 225.043 267.654 236.322 266.633 238.399L264.778 242.176L250.562 241.899L236.346 241.622L236.079 216.872L235.811 192.122H232.329C229.554 192.122 228.821 192.529 228.721 194.122ZM316.033 195.372L316.346 198.622L324.596 198.912L332.846 199.203V224.049V248.895L335.823 249.332C337.46 249.572 339.252 249.489 339.805 249.148C340.421 248.766 340.913 239.081 341.078 224.074L341.346 199.622L349.596 199.332L357.846 199.041V195.582V192.122H336.783H315.719L316.033 195.372ZM475.626 220.623L475.346 249.123H479.061L482.776 249.122L483.061 238.872L483.346 228.622L487.879 228.326C493.111 227.985 493.298 228.145 502.262 240.622C507.433 247.819 508.402 248.679 511.917 249.188C514.066 249.499 516.242 249.495 516.754 249.179C517.265 248.863 514.57 244.384 510.765 239.226C506.959 234.067 503.846 229.499 503.846 229.074C503.846 228.648 505.762 227.373 508.105 226.239C520.542 220.218 521.37 201.616 509.51 194.665C505.396 192.255 504.408 192.122 490.538 192.122H475.906L475.626 220.623ZM522.846 220.622C522.846 238.881 523.205 249.162 523.846 249.233C524.396 249.294 525.746 249.344 526.846 249.344C527.946 249.344 529.29 249.294 529.832 249.233C530.446 249.164 530.795 241.538 530.758 229.029C530.725 217.978 530.9 208.734 531.147 208.487C531.394 208.241 535.522 214.357 540.32 222.08C545.118 229.803 549.337 236.107 549.695 236.088C550.053 236.069 554.171 229.79 558.846 222.135C563.521 214.479 567.683 208.195 568.096 208.169C568.509 208.143 568.846 217.314 568.846 228.549C568.846 250.8 568.722 250.352 574.596 249.294L576.846 248.889V220.448V192.007L572.612 192.315L568.378 192.622L559.641 206.543C554.836 214.2 550.515 220.853 550.04 221.328C549.556 221.812 545.122 215.597 539.933 207.157L530.69 192.122H526.768H522.846V220.622ZM446.23 200.172C451.391 202.598 453.878 205.105 456.865 210.893C460.023 217.01 459.425 227.137 455.563 232.974C449.977 241.414 438.896 245.274 429.321 242.114C420.178 239.096 412.976 227.56 414.347 218.129C415.52 210.063 421.62 202.13 428.876 199.235C433.187 197.514 441.534 197.965 446.23 200.172ZM205.387 201.142C211.072 203.894 213.68 209.396 211.984 215.057C211.338 217.212 209.433 220.133 207.751 221.548C204.915 223.935 203.971 224.122 194.769 224.122H184.846V212.289C184.846 205.78 185.146 200.155 185.513 199.789C185.879 199.422 189.562 199.122 193.697 199.122C199.196 199.122 202.335 199.665 205.387 201.142ZM505.535 201.074C512.978 205.612 511.353 217.776 502.993 220.098C498.994 221.209 486.941 221.479 484.428 220.515C483.135 220.019 482.846 218.128 482.846 210.182C482.846 204.832 483.146 200.155 483.513 199.789C483.879 199.422 488.267 199.124 493.263 199.126C500.495 199.129 502.996 199.526 505.535 201.074ZM294.749 213.122C297 218.347 298.842 223.185 298.844 223.872C298.845 224.78 296.381 225.122 289.846 225.122C284.896 225.122 280.846 224.937 280.846 224.711C280.846 224.484 282.464 220.547 284.441 215.961C286.418 211.374 288.456 206.547 288.969 205.233C289.482 203.92 290.072 203.02 290.28 203.233C290.487 203.447 292.499 207.897 294.749 213.122Z" fill="#910D0D" stroke="#910D0D" stroke-width="2" mask="url(#path-1-inside-1_280_16)"/>
<path fill-rule="evenodd" clip-rule="evenodd" d="M0.216825 193.177C-0.00517473 193.755 -0.0671834 206.822 0.0798166 222.214L0.345823 250.201L18.8458 250.485C29.0208 250.642 38.3018 250.535 39.4698 250.248C41.0098 249.87 42.5068 247.514 44.9138 241.686L48.2328 233.646L61.2588 233.923L74.2848 234.201L77.3248 241.494C80.4988 249.105 81.8878 250.66 85.5368 250.686C88.9688 250.71 89.1518 249.144 86.4418 242.954C83.7718 236.855 74.4228 214.687 68.7468 200.999C65.3008 192.687 64.4148 191.854 59.7318 192.517C57.3658 192.853 56.3788 194.655 49.3088 211.544C45.0138 221.806 40.2498 233.026 38.7228 236.479L35.9458 242.757L21.6508 242.479L7.35483 242.201L7.69182 218.066C7.95582 199.144 7.74882 193.759 6.73782 193.134C4.81582 191.946 0.678825 191.973 0.216825 193.177ZM89.5958 192.457C88.6338 192.672 87.8668 193.602 87.8928 194.524C87.9188 195.446 91.4158 208.347 95.6638 223.191C103.828 251.722 103.807 251.681 109.302 250.301C111.345 249.789 112.239 247.453 117.389 229.179C120.573 217.879 123.514 208.986 123.924 209.417C124.335 209.848 126.977 218.526 129.797 228.701C132.616 238.876 135.288 247.876 135.735 248.701C136.784 250.637 142.202 251.191 143.571 249.502C144.498 248.358 159.846 195.744 159.846 193.709C159.846 192.627 155.335 191.576 153.581 192.249C152.713 192.582 149.894 200.791 146.369 213.248C143.186 224.497 140.282 233.701 139.917 233.701C139.551 233.701 137.292 226.614 134.897 217.951C127.85 192.471 128.033 192.983 125.744 192.385C120.518 191.018 119.821 192.251 113.71 213.667C110.525 224.829 107.7 234.181 107.431 234.449C107.163 234.717 106.655 233.789 106.303 232.386C105.951 230.983 103.333 221.641 100.485 211.625C95.1188 192.754 94.3488 191.398 89.5958 192.457ZM66.4548 215.509L70.7168 225.701H61.1978C55.9628 225.701 51.8288 225.34 52.0128 224.899C52.1958 224.457 54.1458 219.739 56.3458 214.414C58.5458 209.089 60.7608 204.863 61.2688 205.024C61.7768 205.185 64.1098 209.903 66.4548 215.509Z" fill="black"/>
</svg>
