<svg width="578" height="251" viewBox="0 0 578 251" fill="none" xmlns="http://www.w3.org/2000/svg">
<mask id="path-1-inside-1_279_6" fill="white">
<path fill-rule="evenodd" clip-rule="evenodd" d="M274.248 1.51687C273.336 3.89387 274.279 10.4449 275.596 10.8779C276.496 11.1739 276.846 9.72386 276.846 5.70486C276.846 0.470858 275.489 -1.71713 274.248 1.51687ZM281.513 0.788873C281.146 1.15487 280.846 3.62987 280.846 6.28887C280.846 9.91787 281.22 11.1219 282.346 11.1219C283.498 11.1219 283.846 9.84387 283.846 5.62187C283.846 0.526865 283.172 -0.870127 281.513 0.788873ZM287.846 5.62187C287.846 10.4609 288.096 11.2199 289.596 10.9319C290.983 10.6649 291.346 9.56287 291.346 5.62187C291.346 1.68087 290.983 0.578868 289.596 0.311868C288.096 0.0238678 287.846 0.782865 287.846 5.62187ZM294.711 3.32087C294.12 8.66387 294.795 11.2779 296.673 10.9169C299.072 10.4549 299.107 0.795863 296.711 0.334863C295.518 0.104863 294.978 0.91087 294.711 3.32087ZM301.276 1.44286C300.966 2.25086 300.855 4.64587 301.029 6.76687C301.283 9.84987 301.747 10.6219 303.346 10.6219C305.079 10.6219 305.346 9.95487 305.346 5.63587C305.346 1.67887 304.984 0.579868 303.593 0.311868C302.629 0.125868 301.586 0.634865 301.276 1.44286ZM308.547 0.753869C308.162 1.13987 307.846 3.62987 307.846 6.28887C307.846 10.8039 308.014 11.1219 310.398 11.1219C312.848 11.1219 312.938 10.9119 312.648 5.88087C312.431 2.10787 311.912 0.557871 310.797 0.346871C309.945 0.184871 308.933 0.367869 308.547 0.753869ZM239.846 58.0629C239.846 94.9449 240.198 115.222 240.846 115.622C241.508 116.031 241.846 96.7989 241.846 58.6809C241.846 20.9749 241.501 1.12187 240.846 1.12187C240.191 1.12187 239.846 20.7689 239.846 58.0629ZM314.846 6.01487C314.846 9.55387 315.284 11.0759 316.428 11.5149C319.443 12.6719 319.846 12.0949 319.846 6.62187C319.846 1.42187 319.71 1.12187 317.346 1.12187C315.02 1.12187 314.846 1.46187 314.846 6.01487ZM321.731 5.37187C321.492 12.1029 322.361 14.0669 325.596 14.1069C327.588 14.1309 327.278 3.50186 325.264 2.72886C322.427 1.63986 321.848 2.07387 321.731 5.37187ZM328.513 4.78887C328.146 5.15487 327.846 7.61187 327.846 10.2479C327.846 14.1909 328.334 15.4939 330.596 17.5949L333.346 20.1499L333.934 17.8859C334.547 15.5269 334.823 16.9229 336.421 30.4829C337.122 36.4269 335.306 47.5239 333.786 46.5849C333.369 46.3269 331.9 47.4579 330.52 49.0969C328.654 51.3149 328.013 53.2319 328.013 56.5919C328.013 59.0749 328.407 61.3509 328.889 61.6479C330.084 62.3869 333.846 59.9319 333.846 58.4129C333.846 57.7369 334.424 57.4069 335.131 57.6779C337.19 58.4679 342.414 52.8489 345.81 46.1919C347.415 43.0459 347.837 40.3409 347.802 33.4119C347.778 28.5769 347.173 22.9829 346.457 20.9789C344.888 16.5879 338.151 8.12187 336.226 8.12187C335.467 8.12187 333.946 7.22187 332.846 6.12187C330.748 4.02387 329.623 3.67787 328.513 4.78887ZM334.535 13.8719C334.284 14.8349 334.078 14.0469 334.078 12.1219C334.078 10.1969 334.284 9.40887 334.535 10.3719C334.787 11.3349 334.787 12.9089 334.535 13.8719ZM334.552 54.3719C334.313 55.6099 334.118 54.5969 334.118 52.1219C334.118 49.6469 334.313 48.6339 334.552 49.8719C334.79 51.1099 334.79 53.1339 334.552 54.3719ZM323.596 53.2019C322.297 53.9589 321.846 55.5149 321.846 59.2409C321.846 63.8749 322.019 64.2369 324.096 63.9419C326.089 63.6579 326.38 62.9659 326.646 57.8719C326.954 51.9669 326.613 51.4449 323.596 53.2019ZM315.513 55.7889C314.493 56.8079 314.72 66.1219 315.764 66.1219C318.91 66.1219 319.846 64.7209 319.846 60.0149C319.846 55.9369 319.541 55.1219 318.013 55.1219C317.004 55.1219 315.879 55.4219 315.513 55.7889ZM274.291 57.4039C274.021 58.1089 273.922 66.9599 274.073 77.0719C274.275 90.6919 274.67 95.5649 275.596 95.8729C276.568 96.1959 276.846 91.8269 276.846 76.2049C276.846 63.0759 276.489 56.1219 275.815 56.1219C275.247 56.1219 274.562 56.6989 274.291 57.4039ZM281.513 56.7889C280.472 57.8289 280.725 94.9289 281.777 95.5789C282.289 95.8959 282.936 95.7849 283.216 95.3329C283.625 94.6709 284.185 64.6689 283.915 57.8719C283.845 56.0909 282.718 55.5829 281.513 56.7889ZM287.846 61.0489C287.846 65.4999 288.098 66.1219 289.901 66.1219C291.728 66.1219 291.922 65.5959 291.651 61.3809C291.421 57.8089 290.915 56.5579 289.596 56.3079C288.116 56.0269 287.846 56.7569 287.846 61.0489ZM294.846 61.0489C294.846 65.4999 295.098 66.1219 296.901 66.1219C298.728 66.1219 298.922 65.5959 298.651 61.3809C298.421 57.8089 297.915 56.5579 296.596 56.3079C295.116 56.0269 294.846 56.7569 294.846 61.0489ZM301.273 57.4529C300.96 58.2659 300.849 60.4369 301.026 62.2769C301.276 64.8919 301.85 65.6929 303.654 65.9489C305.825 66.2569 305.944 65.9899 305.654 61.4579C305.421 57.8099 304.92 56.5589 303.593 56.3069C302.629 56.1239 301.585 56.6399 301.273 57.4529ZM307.846 61.1219C307.846 65.7889 308.013 66.1219 310.346 66.1219C312.679 66.1219 312.846 65.7889 312.846 61.1219C312.846 56.4549 312.679 56.1219 310.346 56.1219C308.013 56.1219 307.846 56.4549 307.846 61.1219ZM246.846 111.122C246.846 113.872 247.296 116.122 247.846 116.122C248.396 116.122 248.846 113.872 248.846 111.122C248.846 108.372 248.396 106.122 247.846 106.122C247.296 106.122 246.846 108.372 246.846 111.122ZM253.846 111.122C253.846 113.872 254.296 116.122 254.846 116.122C255.396 116.122 255.846 113.872 255.846 111.122C255.846 108.372 255.396 106.122 254.846 106.122C254.296 106.122 253.846 108.372 253.846 111.122ZM260.846 111.122C260.846 113.872 261.296 116.122 261.846 116.122C262.396 116.122 262.846 113.872 262.846 111.122C262.846 108.372 262.396 106.122 261.846 106.122C261.296 106.122 260.846 108.372 260.846 111.122ZM267.305 107.372C266.451 109.606 267.352 115.457 268.615 115.878C269.482 116.167 269.846 114.785 269.846 111.205C269.846 106.512 268.443 104.396 267.305 107.372ZM273.846 111.122C273.846 114.9 274.213 116.122 275.346 116.122C276.479 116.122 276.846 114.9 276.846 111.122C276.846 107.344 276.479 106.122 275.346 106.122C274.213 106.122 273.846 107.344 273.846 111.122ZM280.846 111.122C280.846 114.9 281.213 116.122 282.346 116.122C283.935 116.122 284.028 115.846 284.028 111.122C284.028 106.398 283.935 106.122 282.346 106.122C281.213 106.122 280.846 107.344 280.846 111.122ZM287.846 111.122C287.846 115.455 288.113 116.122 289.846 116.122C291.579 116.122 291.846 115.455 291.846 111.122C291.846 106.789 291.579 106.122 289.846 106.122C288.113 106.122 287.846 106.789 287.846 111.122ZM294.611 108.573C293.802 112.802 294.861 116.122 297.017 116.122C298.705 116.122 298.916 115.51 298.651 111.381C298.431 107.959 297.894 106.554 296.722 106.332C295.655 106.13 294.931 106.898 294.611 108.573ZM301.513 106.789C301.146 107.155 300.846 109.405 300.846 111.789C300.846 115.744 301.064 116.122 303.346 116.122C305.679 116.122 305.846 115.789 305.846 111.122C305.846 106.94 305.546 106.122 304.013 106.122C303.004 106.122 301.879 106.422 301.513 106.789ZM307.846 111.122C307.846 115.789 308.013 116.122 310.346 116.122C312.679 116.122 312.846 115.789 312.846 111.122C312.846 106.455 312.679 106.122 310.346 106.122C308.013 106.122 307.846 106.455 307.846 111.122ZM314.846 111.122C314.846 115.789 315.013 116.122 317.346 116.122C319.679 116.122 319.846 115.789 319.846 111.122C319.846 106.455 319.679 106.122 317.346 106.122C315.013 106.122 314.846 106.455 314.846 111.122ZM321.846 111.122C321.846 115.789 322.013 116.122 324.346 116.122C326.679 116.122 326.846 115.789 326.846 111.122C326.846 106.455 326.679 106.122 324.346 106.122C322.013 106.122 321.846 106.455 321.846 111.122ZM328.17 111.122L328.031 116.122H337.939H347.846V111.122V106.122H338.077H328.309L328.17 111.122ZM334.508 111.372C334.231 112.06 334.004 111.497 334.004 110.122C334.004 108.747 334.231 108.185 334.508 108.872C334.786 109.56 334.786 110.685 334.508 111.372ZM429.841 191.473C420.91 193.883 413.286 200.98 409.278 210.614C407.114 215.815 407.707 227.957 410.402 233.622C412.989 239.061 419.96 245.829 425.65 248.425C431.769 251.217 442.465 251.38 448.846 248.779C459.737 244.339 466.787 234.732 467.602 223.222C468.169 215.204 466.872 210.014 462.744 203.782C458.801 197.829 452.655 193.568 445.219 191.631C438.414 189.859 435.918 189.833 429.841 191.473ZM0.216825 192.598C-0.00517473 193.176 -0.0671834 206.243 0.0798166 221.635L0.345823 249.622L18.8458 249.906C29.0208 250.063 38.3018 249.956 39.4698 249.669C41.0098 249.291 42.5068 246.935 44.9138 241.107L48.2328 233.067L61.2588 233.344L74.2848 233.622L77.3248 240.915C80.4988 248.526 81.8878 250.081 85.5368 250.107C88.9688 250.131 89.1518 248.565 86.4418 242.375C83.7718 236.276 74.4228 214.108 68.7468 200.42C65.3008 192.108 64.4148 191.275 59.7318 191.938C57.3658 192.274 56.3788 194.076 49.3088 210.965C45.0138 221.227 40.2498 232.447 38.7228 235.9L35.9458 242.178L21.6508 241.9L7.35483 241.622L7.69182 217.487C7.95582 198.565 7.74882 193.18 6.73782 192.555C4.81582 191.367 0.678825 191.394 0.216825 192.598ZM89.5958 191.878C88.6338 192.093 87.8668 193.023 87.8928 193.945C87.9188 194.867 91.4158 207.768 95.6638 222.612C103.828 251.143 103.807 251.102 109.302 249.722C111.345 249.21 112.239 246.874 117.389 228.6C120.573 217.3 123.514 208.407 123.924 208.838C124.335 209.269 126.977 217.947 129.797 228.122C132.616 238.297 135.288 247.297 135.735 248.122C136.784 250.058 142.202 250.612 143.571 248.923C144.498 247.779 159.846 195.165 159.846 193.13C159.846 192.048 155.335 190.997 153.581 191.67C152.713 192.003 149.894 200.212 146.369 212.669C143.186 223.918 140.282 233.122 139.917 233.122C139.551 233.122 137.292 226.035 134.897 217.372C127.85 191.892 128.033 192.404 125.744 191.806C120.518 190.439 119.821 191.672 113.71 213.088C110.525 224.25 107.7 233.602 107.431 233.87C107.163 234.138 106.655 233.21 106.303 231.807C105.951 230.404 103.333 221.062 100.485 211.046C95.1188 192.175 94.3488 190.819 89.5958 191.878ZM383.126 191.894L364.906 192.167L364.626 220.645L364.346 249.123H368.061L371.776 249.122L372.061 238.872L372.346 228.622L384.596 228.341L396.846 228.06V224.591V221.122L385.596 221.107C379.409 221.098 373.766 220.724 373.058 220.274C372.115 219.676 371.847 216.8 372.058 209.539L372.346 199.622L387.596 199.346L402.846 199.07V195.655C402.846 193.777 402.509 192.101 402.096 191.931C401.683 191.761 393.147 191.745 383.126 191.894ZM178.846 220.55V249.122H182.306H185.765L186.056 240.872L186.346 232.622L197.08 232.073C206.938 231.568 208.161 231.28 212.071 228.531C218.635 223.918 220.993 219.054 220.606 210.928C220.334 205.227 219.838 203.68 217.259 200.493C211.134 192.926 210.366 192.658 193.777 192.3L178.846 191.978V220.55ZM229.721 194.122C229.652 195.222 229.596 196.797 229.596 197.622C229.596 198.447 229.652 210.372 229.721 224.122L229.846 249.122H250.664H271.482L274.785 241.122L278.088 233.122H291.039H303.99L307.588 241.122C310.344 247.251 311.672 249.15 313.266 249.24C315.47 249.366 318.181 249.089 318.593 248.696C318.729 248.567 313.542 235.897 307.067 220.541L295.293 192.622L291.319 192.335L287.346 192.048L278.418 213.335C273.507 225.043 268.654 236.322 267.633 238.399L265.778 242.176L251.562 241.899L237.346 241.622L237.079 216.872L236.811 192.122H233.329C230.554 192.122 229.821 192.529 229.721 194.122ZM317.033 195.372L317.346 198.622L325.596 198.912L333.846 199.203V224.049V248.895L336.823 249.332C338.46 249.572 340.252 249.489 340.805 249.148C341.421 248.766 341.913 239.081 342.078 224.074L342.346 199.622L350.596 199.332L358.846 199.041V195.582V192.122H337.783H316.719L317.033 195.372ZM476.626 220.623L476.346 249.123H480.061L483.776 249.122L484.061 238.872L484.346 228.622L488.879 228.326C494.111 227.985 494.298 228.145 503.262 240.622C508.433 247.819 509.402 248.679 512.917 249.188C515.066 249.499 517.242 249.495 517.754 249.179C518.265 248.863 515.57 244.384 511.765 239.226C507.959 234.067 504.846 229.499 504.846 229.074C504.846 228.648 506.762 227.373 509.105 226.239C521.542 220.218 522.37 201.616 510.51 194.665C506.396 192.255 505.408 192.122 491.538 192.122H476.906L476.626 220.623ZM523.846 220.622C523.846 238.881 524.205 249.162 524.846 249.233C525.396 249.294 526.746 249.344 527.846 249.344C528.946 249.344 530.29 249.294 530.832 249.233C531.446 249.164 531.795 241.538 531.758 229.029C531.725 217.978 531.9 208.734 532.147 208.487C532.394 208.241 536.522 214.357 541.32 222.08C546.118 229.803 550.337 236.107 550.695 236.088C551.053 236.069 555.171 229.79 559.846 222.135C564.521 214.479 568.683 208.195 569.096 208.169C569.509 208.143 569.846 217.314 569.846 228.549C569.846 250.8 569.722 250.352 575.596 249.294L577.846 248.889V220.448V192.007L573.612 192.315L569.378 192.622L560.641 206.543C555.836 214.2 551.515 220.853 551.04 221.328C550.556 221.812 546.122 215.597 540.933 207.157L531.69 192.122H527.768H523.846V220.622ZM447.23 200.172C452.391 202.598 454.878 205.105 457.865 210.893C461.023 217.01 460.425 227.137 456.563 232.974C450.977 241.414 439.896 245.274 430.321 242.114C421.178 239.096 413.976 227.56 415.347 218.129C416.52 210.063 422.62 202.13 429.876 199.235C434.187 197.514 442.534 197.965 447.23 200.172ZM206.387 201.142C212.072 203.894 214.68 209.396 212.984 215.057C212.338 217.212 210.433 220.133 208.751 221.548C205.915 223.935 204.971 224.122 195.769 224.122H185.846V212.289C185.846 205.78 186.146 200.155 186.513 199.789C186.879 199.422 190.562 199.122 194.697 199.122C200.196 199.122 203.335 199.665 206.387 201.142ZM506.535 201.074C513.978 205.612 512.353 217.776 503.993 220.098C499.994 221.209 487.941 221.479 485.428 220.515C484.135 220.019 483.846 218.128 483.846 210.182C483.846 204.832 484.146 200.155 484.513 199.789C484.879 199.422 489.267 199.124 494.263 199.126C501.495 199.129 503.996 199.526 506.535 201.074ZM295.749 213.122C298 218.347 299.842 223.185 299.844 223.872C299.845 224.78 297.381 225.122 290.846 225.122C285.896 225.122 281.846 224.937 281.846 224.711C281.846 224.484 283.464 220.547 285.441 215.961C287.418 211.374 289.456 206.547 289.969 205.233C290.482 203.92 291.072 203.02 291.28 203.233C291.487 203.447 293.499 207.897 295.749 213.122ZM66.4548 214.93L70.7168 225.122H61.1978C55.9628 225.122 51.8288 224.761 52.0128 224.32C52.1958 223.878 54.1458 219.16 56.3458 213.835C58.5458 208.51 60.7608 204.284 61.2688 204.445C61.7768 204.606 64.1098 209.324 66.4548 214.93Z"/>
</mask>
<path fill-rule="evenodd" clip-rule="evenodd" d="M274.248 1.51687C273.336 3.89387 274.279 10.4449 275.596 10.8779C276.496 11.1739 276.846 9.72386 276.846 5.70486C276.846 0.470858 275.489 -1.71713 274.248 1.51687ZM281.513 0.788873C281.146 1.15487 280.846 3.62987 280.846 6.28887C280.846 9.91787 281.22 11.1219 282.346 11.1219C283.498 11.1219 283.846 9.84387 283.846 5.62187C283.846 0.526865 283.172 -0.870127 281.513 0.788873ZM287.846 5.62187C287.846 10.4609 288.096 11.2199 289.596 10.9319C290.983 10.6649 291.346 9.56287 291.346 5.62187C291.346 1.68087 290.983 0.578868 289.596 0.311868C288.096 0.0238678 287.846 0.782865 287.846 5.62187ZM294.711 3.32087C294.12 8.66387 294.795 11.2779 296.673 10.9169C299.072 10.4549 299.107 0.795863 296.711 0.334863C295.518 0.104863 294.978 0.91087 294.711 3.32087ZM301.276 1.44286C300.966 2.25086 300.855 4.64587 301.029 6.76687C301.283 9.84987 301.747 10.6219 303.346 10.6219C305.079 10.6219 305.346 9.95487 305.346 5.63587C305.346 1.67887 304.984 0.579868 303.593 0.311868C302.629 0.125868 301.586 0.634865 301.276 1.44286ZM308.547 0.753869C308.162 1.13987 307.846 3.62987 307.846 6.28887C307.846 10.8039 308.014 11.1219 310.398 11.1219C312.848 11.1219 312.938 10.9119 312.648 5.88087C312.431 2.10787 311.912 0.557871 310.797 0.346871C309.945 0.184871 308.933 0.367869 308.547 0.753869ZM239.846 58.0629C239.846 94.9449 240.198 115.222 240.846 115.622C241.508 116.031 241.846 96.7989 241.846 58.6809C241.846 20.9749 241.501 1.12187 240.846 1.12187C240.191 1.12187 239.846 20.7689 239.846 58.0629ZM314.846 6.01487C314.846 9.55387 315.284 11.0759 316.428 11.5149C319.443 12.6719 319.846 12.0949 319.846 6.62187C319.846 1.42187 319.71 1.12187 317.346 1.12187C315.02 1.12187 314.846 1.46187 314.846 6.01487ZM321.731 5.37187C321.492 12.1029 322.361 14.0669 325.596 14.1069C327.588 14.1309 327.278 3.50186 325.264 2.72886C322.427 1.63986 321.848 2.07387 321.731 5.37187ZM328.513 4.78887C328.146 5.15487 327.846 7.61187 327.846 10.2479C327.846 14.1909 328.334 15.4939 330.596 17.5949L333.346 20.1499L333.934 17.8859C334.547 15.5269 334.823 16.9229 336.421 30.4829C337.122 36.4269 335.306 47.5239 333.786 46.5849C333.369 46.3269 331.9 47.4579 330.52 49.0969C328.654 51.3149 328.013 53.2319 328.013 56.5919C328.013 59.0749 328.407 61.3509 328.889 61.6479C330.084 62.3869 333.846 59.9319 333.846 58.4129C333.846 57.7369 334.424 57.4069 335.131 57.6779C337.19 58.4679 342.414 52.8489 345.81 46.1919C347.415 43.0459 347.837 40.3409 347.802 33.4119C347.778 28.5769 347.173 22.9829 346.457 20.9789C344.888 16.5879 338.151 8.12187 336.226 8.12187C335.467 8.12187 333.946 7.22187 332.846 6.12187C330.748 4.02387 329.623 3.67787 328.513 4.78887ZM334.535 13.8719C334.284 14.8349 334.078 14.0469 334.078 12.1219C334.078 10.1969 334.284 9.40887 334.535 10.3719C334.787 11.3349 334.787 12.9089 334.535 13.8719ZM334.552 54.3719C334.313 55.6099 334.118 54.5969 334.118 52.1219C334.118 49.6469 334.313 48.6339 334.552 49.8719C334.79 51.1099 334.79 53.1339 334.552 54.3719ZM323.596 53.2019C322.297 53.9589 321.846 55.5149 321.846 59.2409C321.846 63.8749 322.019 64.2369 324.096 63.9419C326.089 63.6579 326.38 62.9659 326.646 57.8719C326.954 51.9669 326.613 51.4449 323.596 53.2019ZM315.513 55.7889C314.493 56.8079 314.72 66.1219 315.764 66.1219C318.91 66.1219 319.846 64.7209 319.846 60.0149C319.846 55.9369 319.541 55.1219 318.013 55.1219C317.004 55.1219 315.879 55.4219 315.513 55.7889ZM274.291 57.4039C274.021 58.1089 273.922 66.9599 274.073 77.0719C274.275 90.6919 274.67 95.5649 275.596 95.8729C276.568 96.1959 276.846 91.8269 276.846 76.2049C276.846 63.0759 276.489 56.1219 275.815 56.1219C275.247 56.1219 274.562 56.6989 274.291 57.4039ZM281.513 56.7889C280.472 57.8289 280.725 94.9289 281.777 95.5789C282.289 95.8959 282.936 95.7849 283.216 95.3329C283.625 94.6709 284.185 64.6689 283.915 57.8719C283.845 56.0909 282.718 55.5829 281.513 56.7889ZM287.846 61.0489C287.846 65.4999 288.098 66.1219 289.901 66.1219C291.728 66.1219 291.922 65.5959 291.651 61.3809C291.421 57.8089 290.915 56.5579 289.596 56.3079C288.116 56.0269 287.846 56.7569 287.846 61.0489ZM294.846 61.0489C294.846 65.4999 295.098 66.1219 296.901 66.1219C298.728 66.1219 298.922 65.5959 298.651 61.3809C298.421 57.8089 297.915 56.5579 296.596 56.3079C295.116 56.0269 294.846 56.7569 294.846 61.0489ZM301.273 57.4529C300.96 58.2659 300.849 60.4369 301.026 62.2769C301.276 64.8919 301.85 65.6929 303.654 65.9489C305.825 66.2569 305.944 65.9899 305.654 61.4579C305.421 57.8099 304.92 56.5589 303.593 56.3069C302.629 56.1239 301.585 56.6399 301.273 57.4529ZM307.846 61.1219C307.846 65.7889 308.013 66.1219 310.346 66.1219C312.679 66.1219 312.846 65.7889 312.846 61.1219C312.846 56.4549 312.679 56.1219 310.346 56.1219C308.013 56.1219 307.846 56.4549 307.846 61.1219ZM246.846 111.122C246.846 113.872 247.296 116.122 247.846 116.122C248.396 116.122 248.846 113.872 248.846 111.122C248.846 108.372 248.396 106.122 247.846 106.122C247.296 106.122 246.846 108.372 246.846 111.122ZM253.846 111.122C253.846 113.872 254.296 116.122 254.846 116.122C255.396 116.122 255.846 113.872 255.846 111.122C255.846 108.372 255.396 106.122 254.846 106.122C254.296 106.122 253.846 108.372 253.846 111.122ZM260.846 111.122C260.846 113.872 261.296 116.122 261.846 116.122C262.396 116.122 262.846 113.872 262.846 111.122C262.846 108.372 262.396 106.122 261.846 106.122C261.296 106.122 260.846 108.372 260.846 111.122ZM267.305 107.372C266.451 109.606 267.352 115.457 268.615 115.878C269.482 116.167 269.846 114.785 269.846 111.205C269.846 106.512 268.443 104.396 267.305 107.372ZM273.846 111.122C273.846 114.9 274.213 116.122 275.346 116.122C276.479 116.122 276.846 114.9 276.846 111.122C276.846 107.344 276.479 106.122 275.346 106.122C274.213 106.122 273.846 107.344 273.846 111.122ZM280.846 111.122C280.846 114.9 281.213 116.122 282.346 116.122C283.935 116.122 284.028 115.846 284.028 111.122C284.028 106.398 283.935 106.122 282.346 106.122C281.213 106.122 280.846 107.344 280.846 111.122ZM287.846 111.122C287.846 115.455 288.113 116.122 289.846 116.122C291.579 116.122 291.846 115.455 291.846 111.122C291.846 106.789 291.579 106.122 289.846 106.122C288.113 106.122 287.846 106.789 287.846 111.122ZM294.611 108.573C293.802 112.802 294.861 116.122 297.017 116.122C298.705 116.122 298.916 115.51 298.651 111.381C298.431 107.959 297.894 106.554 296.722 106.332C295.655 106.13 294.931 106.898 294.611 108.573ZM301.513 106.789C301.146 107.155 300.846 109.405 300.846 111.789C300.846 115.744 301.064 116.122 303.346 116.122C305.679 116.122 305.846 115.789 305.846 111.122C305.846 106.94 305.546 106.122 304.013 106.122C303.004 106.122 301.879 106.422 301.513 106.789ZM307.846 111.122C307.846 115.789 308.013 116.122 310.346 116.122C312.679 116.122 312.846 115.789 312.846 111.122C312.846 106.455 312.679 106.122 310.346 106.122C308.013 106.122 307.846 106.455 307.846 111.122ZM314.846 111.122C314.846 115.789 315.013 116.122 317.346 116.122C319.679 116.122 319.846 115.789 319.846 111.122C319.846 106.455 319.679 106.122 317.346 106.122C315.013 106.122 314.846 106.455 314.846 111.122ZM321.846 111.122C321.846 115.789 322.013 116.122 324.346 116.122C326.679 116.122 326.846 115.789 326.846 111.122C326.846 106.455 326.679 106.122 324.346 106.122C322.013 106.122 321.846 106.455 321.846 111.122ZM328.17 111.122L328.031 116.122H337.939H347.846V111.122V106.122H338.077H328.309L328.17 111.122ZM334.508 111.372C334.231 112.06 334.004 111.497 334.004 110.122C334.004 108.747 334.231 108.185 334.508 108.872C334.786 109.56 334.786 110.685 334.508 111.372ZM429.841 191.473C420.91 193.883 413.286 200.98 409.278 210.614C407.114 215.815 407.707 227.957 410.402 233.622C412.989 239.061 419.96 245.829 425.65 248.425C431.769 251.217 442.465 251.38 448.846 248.779C459.737 244.339 466.787 234.732 467.602 223.222C468.169 215.204 466.872 210.014 462.744 203.782C458.801 197.829 452.655 193.568 445.219 191.631C438.414 189.859 435.918 189.833 429.841 191.473ZM0.216825 192.598C-0.00517473 193.176 -0.0671834 206.243 0.0798166 221.635L0.345823 249.622L18.8458 249.906C29.0208 250.063 38.3018 249.956 39.4698 249.669C41.0098 249.291 42.5068 246.935 44.9138 241.107L48.2328 233.067L61.2588 233.344L74.2848 233.622L77.3248 240.915C80.4988 248.526 81.8878 250.081 85.5368 250.107C88.9688 250.131 89.1518 248.565 86.4418 242.375C83.7718 236.276 74.4228 214.108 68.7468 200.42C65.3008 192.108 64.4148 191.275 59.7318 191.938C57.3658 192.274 56.3788 194.076 49.3088 210.965C45.0138 221.227 40.2498 232.447 38.7228 235.9L35.9458 242.178L21.6508 241.9L7.35483 241.622L7.69182 217.487C7.95582 198.565 7.74882 193.18 6.73782 192.555C4.81582 191.367 0.678825 191.394 0.216825 192.598ZM89.5958 191.878C88.6338 192.093 87.8668 193.023 87.8928 193.945C87.9188 194.867 91.4158 207.768 95.6638 222.612C103.828 251.143 103.807 251.102 109.302 249.722C111.345 249.21 112.239 246.874 117.389 228.6C120.573 217.3 123.514 208.407 123.924 208.838C124.335 209.269 126.977 217.947 129.797 228.122C132.616 238.297 135.288 247.297 135.735 248.122C136.784 250.058 142.202 250.612 143.571 248.923C144.498 247.779 159.846 195.165 159.846 193.13C159.846 192.048 155.335 190.997 153.581 191.67C152.713 192.003 149.894 200.212 146.369 212.669C143.186 223.918 140.282 233.122 139.917 233.122C139.551 233.122 137.292 226.035 134.897 217.372C127.85 191.892 128.033 192.404 125.744 191.806C120.518 190.439 119.821 191.672 113.71 213.088C110.525 224.25 107.7 233.602 107.431 233.87C107.163 234.138 106.655 233.21 106.303 231.807C105.951 230.404 103.333 221.062 100.485 211.046C95.1188 192.175 94.3488 190.819 89.5958 191.878ZM383.126 191.894L364.906 192.167L364.626 220.645L364.346 249.123H368.061L371.776 249.122L372.061 238.872L372.346 228.622L384.596 228.341L396.846 228.06V224.591V221.122L385.596 221.107C379.409 221.098 373.766 220.724 373.058 220.274C372.115 219.676 371.847 216.8 372.058 209.539L372.346 199.622L387.596 199.346L402.846 199.07V195.655C402.846 193.777 402.509 192.101 402.096 191.931C401.683 191.761 393.147 191.745 383.126 191.894ZM178.846 220.55V249.122H182.306H185.765L186.056 240.872L186.346 232.622L197.08 232.073C206.938 231.568 208.161 231.28 212.071 228.531C218.635 223.918 220.993 219.054 220.606 210.928C220.334 205.227 219.838 203.68 217.259 200.493C211.134 192.926 210.366 192.658 193.777 192.3L178.846 191.978V220.55ZM229.721 194.122C229.652 195.222 229.596 196.797 229.596 197.622C229.596 198.447 229.652 210.372 229.721 224.122L229.846 249.122H250.664H271.482L274.785 241.122L278.088 233.122H291.039H303.99L307.588 241.122C310.344 247.251 311.672 249.15 313.266 249.24C315.47 249.366 318.181 249.089 318.593 248.696C318.729 248.567 313.542 235.897 307.067 220.541L295.293 192.622L291.319 192.335L287.346 192.048L278.418 213.335C273.507 225.043 268.654 236.322 267.633 238.399L265.778 242.176L251.562 241.899L237.346 241.622L237.079 216.872L236.811 192.122H233.329C230.554 192.122 229.821 192.529 229.721 194.122ZM317.033 195.372L317.346 198.622L325.596 198.912L333.846 199.203V224.049V248.895L336.823 249.332C338.46 249.572 340.252 249.489 340.805 249.148C341.421 248.766 341.913 239.081 342.078 224.074L342.346 199.622L350.596 199.332L358.846 199.041V195.582V192.122H337.783H316.719L317.033 195.372ZM476.626 220.623L476.346 249.123H480.061L483.776 249.122L484.061 238.872L484.346 228.622L488.879 228.326C494.111 227.985 494.298 228.145 503.262 240.622C508.433 247.819 509.402 248.679 512.917 249.188C515.066 249.499 517.242 249.495 517.754 249.179C518.265 248.863 515.57 244.384 511.765 239.226C507.959 234.067 504.846 229.499 504.846 229.074C504.846 228.648 506.762 227.373 509.105 226.239C521.542 220.218 522.37 201.616 510.51 194.665C506.396 192.255 505.408 192.122 491.538 192.122H476.906L476.626 220.623ZM523.846 220.622C523.846 238.881 524.205 249.162 524.846 249.233C525.396 249.294 526.746 249.344 527.846 249.344C528.946 249.344 530.29 249.294 530.832 249.233C531.446 249.164 531.795 241.538 531.758 229.029C531.725 217.978 531.9 208.734 532.147 208.487C532.394 208.241 536.522 214.357 541.32 222.08C546.118 229.803 550.337 236.107 550.695 236.088C551.053 236.069 555.171 229.79 559.846 222.135C564.521 214.479 568.683 208.195 569.096 208.169C569.509 208.143 569.846 217.314 569.846 228.549C569.846 250.8 569.722 250.352 575.596 249.294L577.846 248.889V220.448V192.007L573.612 192.315L569.378 192.622L560.641 206.543C555.836 214.2 551.515 220.853 551.04 221.328C550.556 221.812 546.122 215.597 540.933 207.157L531.69 192.122H527.768H523.846V220.622ZM447.23 200.172C452.391 202.598 454.878 205.105 457.865 210.893C461.023 217.01 460.425 227.137 456.563 232.974C450.977 241.414 439.896 245.274 430.321 242.114C421.178 239.096 413.976 227.56 415.347 218.129C416.52 210.063 422.62 202.13 429.876 199.235C434.187 197.514 442.534 197.965 447.23 200.172ZM206.387 201.142C212.072 203.894 214.68 209.396 212.984 215.057C212.338 217.212 210.433 220.133 208.751 221.548C205.915 223.935 204.971 224.122 195.769 224.122H185.846V212.289C185.846 205.78 186.146 200.155 186.513 199.789C186.879 199.422 190.562 199.122 194.697 199.122C200.196 199.122 203.335 199.665 206.387 201.142ZM506.535 201.074C513.978 205.612 512.353 217.776 503.993 220.098C499.994 221.209 487.941 221.479 485.428 220.515C484.135 220.019 483.846 218.128 483.846 210.182C483.846 204.832 484.146 200.155 484.513 199.789C484.879 199.422 489.267 199.124 494.263 199.126C501.495 199.129 503.996 199.526 506.535 201.074ZM295.749 213.122C298 218.347 299.842 223.185 299.844 223.872C299.845 224.78 297.381 225.122 290.846 225.122C285.896 225.122 281.846 224.937 281.846 224.711C281.846 224.484 283.464 220.547 285.441 215.961C287.418 211.374 289.456 206.547 289.969 205.233C290.482 203.92 291.072 203.02 291.28 203.233C291.487 203.447 293.499 207.897 295.749 213.122ZM66.4548 214.93L70.7168 225.122H61.1978C55.9628 225.122 51.8288 224.761 52.0128 224.32C52.1958 223.878 54.1458 219.16 56.3458 213.835C58.5458 208.51 60.7608 204.284 61.2688 204.445C61.7768 204.606 64.1098 209.324 66.4548 214.93Z" fill="#910D0D" stroke="black" stroke-width="2" mask="url(#path-1-inside-1_279_6)"/>
<g clip-path="url(#clip0_279_6)">
<rect width="161" height="60" transform="translate(0 191)" fill="white"/>
<path d="M161 191H0V251H161V191Z" fill="#FFFBFB"/>
<path fill-rule="evenodd" clip-rule="evenodd" d="M275.962 1.51699C275.044 3.89399 275.993 10.445 277.318 10.878C278.224 11.174 278.576 9.72399 278.576 5.70499C278.576 0.470991 277.211 -1.71701 275.962 1.51699ZM283.272 0.788991C282.903 1.15499 282.601 3.62999 282.601 6.28899C282.601 9.91799 282.978 11.122 284.111 11.122C285.27 11.122 285.62 9.84398 285.62 5.62198C285.62 0.526984 284.942 -0.870009 283.272 0.788991ZM289.645 5.62198C289.645 10.461 289.897 11.22 291.406 10.932C292.802 10.665 293.167 9.56298 293.167 5.62198C293.167 1.68098 292.802 0.578986 291.406 0.311986C289.897 0.0239862 289.645 0.782983 289.645 5.62198ZM296.553 3.32099C295.958 8.66399 296.637 11.278 298.527 10.917C300.941 10.455 300.976 0.795996 298.565 0.334996C297.365 0.104996 296.822 0.910989 296.553 3.32099ZM303.159 1.44298C302.847 2.25098 302.735 4.64599 302.91 6.76699C303.166 9.84999 303.633 10.622 305.242 10.622C306.986 10.622 307.254 9.95499 307.254 5.63599C307.254 1.67899 306.89 0.579986 305.49 0.311986C304.52 0.125986 303.471 0.634983 303.159 1.44298ZM310.475 0.753987C310.088 1.13999 309.77 3.62999 309.77 6.28899C309.77 10.804 309.939 11.122 312.338 11.122C314.803 11.122 314.894 10.912 314.602 5.88099C314.384 2.10799 313.861 0.55799 312.739 0.34699C311.882 0.18499 310.864 0.367987 310.475 0.753987ZM241.345 58.063C241.345 94.9449 241.699 115.222 242.351 115.622C243.017 116.031 243.358 96.7989 243.358 58.681C243.358 20.975 243.01 1.12198 242.351 1.12198C241.692 1.12198 241.345 20.769 241.345 58.063ZM316.814 6.01499C316.814 9.55399 317.255 11.076 318.406 11.515C321.439 12.672 321.845 12.095 321.845 6.62198C321.845 1.42198 321.708 1.12198 319.329 1.12198C316.989 1.12198 316.814 1.46199 316.814 6.01499ZM323.742 5.37198C323.501 12.103 324.376 14.067 327.631 14.107C329.635 14.131 329.323 3.50199 327.297 2.72899C324.442 1.63999 323.86 2.07398 323.742 5.37198ZM330.566 4.78899C330.197 5.15499 329.895 7.61199 329.895 10.248C329.895 14.191 330.386 15.494 332.662 17.595L335.429 20.15L336.021 17.886C336.638 15.527 336.916 16.923 338.524 30.483C339.229 36.427 337.402 47.524 335.872 46.585C335.453 46.327 333.974 47.458 332.586 49.097C330.708 51.315 330.063 53.232 330.063 56.592C330.063 59.075 330.46 61.351 330.945 61.648C332.147 62.387 335.933 59.932 335.933 58.413C335.933 57.737 336.514 57.407 337.226 57.678C339.297 58.468 344.554 52.849 347.971 46.192C349.586 43.046 350.011 40.341 349.976 33.412C349.952 28.577 349.343 22.983 348.622 20.979C347.044 16.588 340.264 8.12198 338.327 8.12198C337.564 8.12198 336.033 7.22198 334.926 6.12198C332.815 4.02398 331.683 3.67799 330.566 4.78899ZM336.626 13.872C336.373 14.835 336.166 14.047 336.166 12.122C336.166 10.197 336.373 9.40898 336.626 10.372C336.879 11.335 336.879 12.909 336.626 13.872ZM336.643 54.372C336.402 55.61 336.206 54.597 336.206 52.122C336.206 49.647 336.402 48.634 336.643 49.872C336.882 51.11 336.882 53.134 336.643 54.372ZM325.618 53.202C324.311 53.959 323.858 55.515 323.858 59.241C323.858 63.875 324.032 64.237 326.122 63.942C328.127 63.658 328.42 62.966 328.688 57.872C328.997 51.967 328.654 51.445 325.618 53.202ZM317.485 55.789C316.459 56.808 316.687 66.122 317.738 66.122C320.903 66.122 321.845 64.721 321.845 60.015C321.845 55.937 321.538 55.122 320.001 55.122C318.985 55.122 317.853 55.422 317.485 55.789ZM276.005 57.404C275.734 58.109 275.634 66.96 275.786 77.072C275.989 90.692 276.387 95.5649 277.318 95.8729C278.297 96.1959 278.576 91.8269 278.576 76.205C278.576 63.076 278.217 56.122 277.539 56.122C276.967 56.122 276.278 56.699 276.005 57.404ZM283.272 56.789C282.225 57.829 282.48 94.9289 283.538 95.5789C284.053 95.8959 284.704 95.7849 284.986 95.3329C285.398 94.6709 285.961 64.669 285.689 57.872C285.619 56.091 284.485 55.583 283.272 56.789ZM289.645 61.049C289.645 65.5 289.899 66.122 291.713 66.122C293.551 66.122 293.746 65.596 293.474 61.381C293.242 57.809 292.733 56.558 291.406 56.308C289.917 56.027 289.645 56.757 289.645 61.049ZM296.689 61.049C296.689 65.5 296.942 66.122 298.757 66.122C300.595 66.122 300.79 65.596 300.518 61.381C300.286 57.809 299.777 56.558 298.45 56.308C296.96 56.027 296.689 56.757 296.689 61.049ZM303.156 57.453C302.841 58.266 302.729 60.437 302.907 62.277C303.159 64.892 303.737 65.693 305.552 65.949C307.736 66.257 307.856 65.99 307.564 61.458C307.33 57.81 306.826 56.559 305.49 56.307C304.52 56.124 303.47 56.64 303.156 57.453ZM309.77 61.122C309.77 65.789 309.938 66.122 312.286 66.122C314.633 66.122 314.801 65.789 314.801 61.122C314.801 56.455 314.633 56.122 312.286 56.122C309.938 56.122 309.77 56.455 309.77 61.122ZM248.389 111.122C248.389 113.872 248.842 116.122 249.395 116.122C249.948 116.122 250.401 113.872 250.401 111.122C250.401 108.372 249.948 106.122 249.395 106.122C248.842 106.122 248.389 108.372 248.389 111.122ZM255.433 111.122C255.433 113.872 255.885 116.122 256.439 116.122C256.992 116.122 257.445 113.872 257.445 111.122C257.445 108.372 256.992 106.122 256.439 106.122C255.885 106.122 255.433 108.372 255.433 111.122ZM262.476 111.122C262.476 113.872 262.929 116.122 263.483 116.122C264.036 116.122 264.489 113.872 264.489 111.122C264.489 108.372 264.036 106.122 263.483 106.122C262.929 106.122 262.476 108.372 262.476 111.122ZM268.976 107.372C268.116 109.606 269.023 115.457 270.294 115.878C271.166 116.167 271.533 114.785 271.533 111.205C271.533 106.512 270.121 104.396 268.976 107.372ZM275.558 111.122C275.558 114.9 275.927 116.122 277.067 116.122C278.207 116.122 278.576 114.9 278.576 111.122C278.576 107.344 278.207 106.122 277.067 106.122C275.927 106.122 275.558 107.344 275.558 111.122ZM282.601 111.122C282.601 114.9 282.971 116.122 284.111 116.122C285.71 116.122 285.803 115.846 285.803 111.122C285.803 106.398 285.71 106.122 284.111 106.122C282.971 106.122 282.601 107.344 282.601 111.122ZM289.645 111.122C289.645 115.455 289.914 116.122 291.658 116.122C293.401 116.122 293.67 115.455 293.67 111.122C293.67 106.789 293.401 106.122 291.658 106.122C289.914 106.122 289.645 106.789 289.645 111.122ZM296.452 108.573C295.638 112.802 296.704 116.122 298.873 116.122C300.572 116.122 300.784 115.51 300.518 111.381C300.296 107.959 299.756 106.554 298.576 106.332C297.503 106.13 296.774 106.898 296.452 108.573ZM303.397 106.789C303.028 107.155 302.726 109.405 302.726 111.789C302.726 115.744 302.946 116.122 305.242 116.122C307.589 116.122 307.758 115.789 307.758 111.122C307.758 106.94 307.456 106.122 305.913 106.122C304.898 106.122 303.766 106.422 303.397 106.789ZM309.77 111.122C309.77 115.789 309.938 116.122 312.286 116.122C314.633 116.122 314.801 115.789 314.801 111.122C314.801 106.455 314.633 106.122 312.286 106.122C309.938 106.122 309.77 106.455 309.77 111.122ZM316.814 111.122C316.814 115.789 316.982 116.122 319.329 116.122C321.677 116.122 321.845 115.789 321.845 111.122C321.845 106.455 321.677 106.122 319.329 106.122C316.982 106.122 316.814 106.455 316.814 111.122ZM323.858 111.122C323.858 115.789 324.026 116.122 326.373 116.122C328.721 116.122 328.889 115.789 328.889 111.122C328.889 106.455 328.721 106.122 326.373 106.122C324.026 106.122 323.858 106.455 323.858 111.122ZM330.221 111.122L330.081 116.122H340.051H350.02V111.122V106.122H340.19H330.361L330.221 111.122ZM336.599 111.372C336.32 112.06 336.091 111.497 336.091 110.122C336.091 108.747 336.32 108.185 336.599 108.872C336.878 109.56 336.878 110.685 336.599 111.372ZM432.527 191.473C423.541 193.883 415.869 200.98 411.836 210.614C409.658 215.815 410.255 227.957 412.967 233.622C415.57 239.061 422.585 245.829 428.31 248.425C434.468 251.217 445.23 251.38 451.651 248.779C462.61 244.339 469.704 234.732 470.524 223.222C471.095 215.204 469.79 210.014 465.636 203.782C461.668 197.829 455.484 193.568 448.002 191.631C441.154 189.859 438.642 189.833 432.527 191.473ZM0.21818 192.598C-0.00520707 193.176 -0.0676033 206.243 0.0803155 221.635L0.347984 249.622L18.9636 249.906C29.2022 250.063 38.5412 249.956 39.7165 249.669C41.2661 249.291 42.7725 246.935 45.1945 241.107L48.5342 233.067L61.6417 233.344L74.7491 233.622L77.8081 240.915C81.0019 248.526 82.3996 250.081 86.0714 250.107C89.5248 250.131 89.709 248.565 86.9821 242.375C84.2954 236.276 74.8879 214.108 69.1765 200.42C65.7089 192.108 64.8174 191.275 60.1051 191.938C57.7243 192.274 56.7312 194.076 49.617 210.965C45.2951 221.227 40.5014 232.447 38.9648 235.9L36.1705 242.178L21.7861 241.9L7.4008 241.622L7.73989 217.487C8.00554 198.565 7.79725 193.18 6.77993 192.555C4.84592 191.367 0.683068 191.394 0.21818 192.598ZM90.1558 191.878C89.1878 192.093 88.416 193.023 88.4421 193.945C88.4683 194.867 91.9871 207.768 96.2617 222.612C104.477 251.143 104.456 251.102 109.985 249.722C112.041 249.21 112.94 246.874 118.123 228.6C121.327 217.3 124.286 208.407 124.699 208.838C125.112 209.269 127.771 217.947 130.608 228.122C133.445 238.297 136.134 247.297 136.583 248.122C137.639 250.058 143.091 250.612 144.468 248.923C145.401 247.779 160.845 195.165 160.845 193.13C160.845 192.048 156.306 190.997 154.541 191.67C153.667 192.003 150.831 200.212 147.284 212.669C144.081 223.918 141.159 233.122 140.791 233.122C140.423 233.122 138.15 226.035 135.74 217.372C128.649 191.892 128.833 192.404 126.53 191.806C121.271 190.439 120.57 191.672 114.421 213.088C111.216 224.25 108.373 233.602 108.102 233.87C107.833 234.138 107.322 233.21 106.967 231.807C106.613 230.404 103.979 221.062 101.113 211.046C95.7133 192.175 94.9385 190.819 90.1558 191.878ZM385.521 191.894L367.187 192.167L366.905 220.645L366.623 249.123H370.361L374.1 249.122L374.386 238.872L374.673 228.622L387 228.341L399.326 228.06V224.591V221.122L388.006 221.107C381.78 221.098 376.102 220.724 375.39 220.274C374.441 219.676 374.171 216.8 374.383 209.539L374.673 199.622L390.018 199.346L405.364 199.07V195.655C405.364 193.777 405.025 192.101 404.609 191.931C404.193 191.761 395.604 191.745 385.521 191.894ZM179.964 220.55V249.122H183.445H186.926L187.219 240.872L187.511 232.622L198.312 232.073C208.231 231.568 209.462 231.28 213.396 228.531C220.001 223.918 222.374 219.054 221.985 210.928C221.711 205.227 221.212 203.68 218.617 200.493C212.454 192.926 211.681 192.658 194.988 192.3L179.964 191.978V220.55ZM231.157 194.122C231.087 195.222 231.031 196.797 231.031 197.622C231.031 198.447 231.087 210.372 231.157 224.122L231.283 249.122H252.231H273.179L276.502 241.122L279.826 233.122H292.858H305.89L309.51 241.122C312.284 247.251 313.62 249.15 315.224 249.24C317.442 249.366 320.17 249.089 320.584 248.696C320.721 248.567 315.502 235.897 308.986 220.541L297.139 192.622L293.14 192.335L289.142 192.048L280.158 213.335C275.216 225.043 270.333 236.322 269.306 238.399L267.439 242.176L253.134 241.899L238.829 241.622L238.561 216.872L238.291 192.122H234.787C231.995 192.122 231.257 192.529 231.157 194.122ZM319.014 195.372L319.329 198.622L327.631 198.912L335.933 199.203V224.049V248.895L338.928 249.332C340.575 249.572 342.379 249.489 342.935 249.148C343.555 248.766 344.05 239.081 344.216 224.074L344.486 199.622L352.787 199.332L361.089 199.041V195.582V192.122H339.894H318.698L319.014 195.372ZM479.605 220.623L479.323 249.123H483.061L486.8 249.122L487.086 238.872L487.373 228.622L491.934 228.326C497.199 227.985 497.387 228.145 506.407 240.622C511.611 247.819 512.586 248.679 516.123 249.188C518.285 249.499 520.475 249.495 520.99 249.179C521.504 248.863 518.792 244.384 514.963 239.226C511.134 234.067 508.001 229.499 508.001 229.074C508.001 228.648 509.929 227.373 512.287 226.239C524.802 220.218 525.635 201.616 513.701 194.665C509.561 192.255 508.567 192.122 494.61 192.122H479.887L479.605 220.623ZM527.12 220.622C527.12 238.881 527.481 249.162 528.126 249.233C528.68 249.294 530.038 249.344 531.145 249.344C532.252 249.344 533.604 249.294 534.15 249.233C534.767 249.164 535.119 241.538 535.081 229.029C535.048 217.978 535.224 208.734 535.473 208.487C535.721 208.241 539.875 214.357 544.703 222.08C549.531 229.803 553.777 236.107 554.137 236.088C554.497 236.069 558.641 229.79 563.345 222.135C568.049 214.479 572.237 208.195 572.653 208.169C573.068 208.143 573.407 217.314 573.407 228.549C573.407 250.8 573.283 250.352 579.193 249.294L581.457 248.889V220.448V192.007L577.197 192.315L572.937 192.622L564.145 206.543C559.31 214.2 554.962 220.853 554.484 221.328C553.997 221.812 549.535 215.597 544.314 207.157L535.013 192.122H531.067H527.12V220.622ZM450.025 200.172C455.218 202.598 457.721 205.105 460.727 210.893C463.904 217.01 463.303 227.137 459.416 232.974C453.796 241.414 442.645 245.274 433.01 242.114C423.81 239.096 416.563 227.56 417.943 218.129C419.123 210.063 425.261 202.13 432.563 199.235C436.901 197.514 445.3 197.965 450.025 200.172ZM207.677 201.142C213.397 203.894 216.022 209.396 214.315 215.057C213.665 217.212 211.748 220.133 210.056 221.548C207.202 223.935 206.252 224.122 196.993 224.122H187.008V212.289C187.008 205.78 187.309 200.155 187.679 199.789C188.047 199.422 191.753 199.122 195.914 199.122C201.447 199.122 204.606 199.665 207.677 201.142ZM509.701 201.074C517.19 205.612 515.555 217.776 507.143 220.098C503.119 221.209 490.991 221.479 488.462 220.515C487.161 220.019 486.87 218.128 486.87 210.182C486.87 204.832 487.172 200.155 487.541 199.789C487.909 199.422 492.325 199.124 497.352 199.126C504.629 199.129 507.146 199.526 509.701 201.074ZM297.597 213.122C299.862 218.347 301.716 223.185 301.718 223.872C301.719 224.78 299.24 225.122 292.664 225.122C287.683 225.122 283.608 224.937 283.608 224.711C283.608 224.484 285.236 220.547 287.225 215.961C289.214 211.374 291.265 206.547 291.781 205.233C292.297 203.92 292.891 203.02 293.1 203.233C293.309 203.447 295.333 207.897 297.597 213.122ZM66.8701 214.93L71.1588 225.122H61.5803C56.3126 225.122 52.1527 224.761 52.3379 224.32C52.522 223.878 54.4842 219.16 56.698 213.835C58.9117 208.51 61.1405 204.284 61.6517 204.445C62.1629 204.606 64.5105 209.324 66.8701 214.93Z" fill="#111111"/>
</g>
<defs>
<clipPath id="clip0_279_6">
<rect width="161" height="60" fill="white" transform="translate(0 191)"/>
</clipPath>
</defs>
</svg>
