<svg width="578" height="251" viewBox="0 0 578 251" fill="none" xmlns="http://www.w3.org/2000/svg">
<path fill-rule="evenodd" clip-rule="evenodd" d="M274.248 1.51687C273.336 3.89387 274.279 10.4449 275.596 10.8779C276.496 11.1739 276.846 9.72386 276.846 5.70486C276.846 0.470858 275.489 -1.71713 274.248 1.51687ZM281.513 0.788873C281.146 1.15487 280.846 3.62987 280.846 6.28887C280.846 9.91787 281.22 11.1219 282.346 11.1219C283.498 11.1219 283.846 9.84387 283.846 5.62187C283.846 0.526865 283.172 -0.870127 281.513 0.788873ZM287.846 5.62187C287.846 10.4609 288.096 11.2199 289.596 10.9319C290.983 10.6649 291.346 9.56287 291.346 5.62187C291.346 1.68087 290.983 0.578868 289.596 0.311868C288.096 0.0238678 287.846 0.782865 287.846 5.62187ZM294.711 3.32087C294.12 8.66387 294.795 11.2779 296.673 10.9169C299.072 10.4549 299.107 0.795863 296.711 0.334863C295.518 0.104863 294.978 0.91087 294.711 3.32087ZM301.276 1.44286C300.966 2.25086 300.855 4.64587 301.029 6.76687C301.283 9.84987 301.747 10.6219 303.346 10.6219C305.079 10.6219 305.346 9.95487 305.346 5.63587C305.346 1.67887 304.984 0.579868 303.593 0.311868C302.629 0.125868 301.586 0.634865 301.276 1.44286ZM308.547 0.753869C308.162 1.13987 307.846 3.62987 307.846 6.28887C307.846 10.8039 308.014 11.1219 310.398 11.1219C312.848 11.1219 312.938 10.9119 312.648 5.88087C312.431 2.10787 311.912 0.557871 310.797 0.346871C309.945 0.184871 308.933 0.367869 308.547 0.753869ZM239.846 58.0629C239.846 94.9449 240.198 115.222 240.846 115.622C241.508 116.031 241.846 96.7989 241.846 58.6809C241.846 20.9749 241.501 1.12187 240.846 1.12187C240.191 1.12187 239.846 20.7689 239.846 58.0629ZM314.846 6.01487C314.846 9.55387 315.284 11.0759 316.428 11.5149C319.443 12.6719 319.846 12.0949 319.846 6.62187C319.846 1.42187 319.71 1.12187 317.346 1.12187C315.02 1.12187 314.846 1.46187 314.846 6.01487ZM321.731 5.37187C321.492 12.1029 322.361 14.0669 325.596 14.1069C327.588 14.1309 327.278 3.50186 325.264 2.72886C322.427 1.63986 321.848 2.07387 321.731 5.37187ZM328.513 4.78887C328.146 5.15487 327.846 7.61187 327.846 10.2479C327.846 14.1909 328.334 15.4939 330.596 17.5949L333.346 20.1499L333.934 17.8859C334.547 15.5269 334.823 16.9229 336.421 30.4829C337.122 36.4269 335.306 47.5239 333.786 46.5849C333.369 46.3269 331.9 47.4579 330.52 49.0969C328.654 51.3149 328.013 53.2319 328.013 56.5919C328.013 59.0749 328.407 61.3509 328.889 61.6479C330.084 62.3869 333.846 59.9319 333.846 58.4129C333.846 57.7369 334.424 57.4069 335.131 57.6779C337.19 58.4679 342.414 52.8489 345.81 46.1919C347.415 43.0459 347.837 40.3409 347.802 33.4119C347.778 28.5769 347.173 22.9829 346.457 20.9789C344.888 16.5879 338.151 8.12187 336.226 8.12187C335.467 8.12187 333.946 7.22187 332.846 6.12187C330.748 4.02387 329.623 3.67787 328.513 4.78887ZM334.535 13.8719C334.284 14.8349 334.078 14.0469 334.078 12.1219C334.078 10.1969 334.284 9.40886 334.535 10.3719C334.787 11.3349 334.787 12.9089 334.535 13.8719ZM334.552 54.3719C334.313 55.6099 334.118 54.5969 334.118 52.1219C334.118 49.6469 334.313 48.6339 334.552 49.8719C334.79 51.1099 334.79 53.1339 334.552 54.3719ZM323.596 53.2019C322.297 53.9589 321.846 55.5149 321.846 59.2409C321.846 63.8749 322.019 64.2369 324.096 63.9419C326.089 63.6579 326.38 62.9659 326.646 57.8719C326.954 51.9669 326.613 51.4449 323.596 53.2019ZM315.513 55.7889C314.493 56.8079 314.72 66.1219 315.764 66.1219C318.91 66.1219 319.846 64.7209 319.846 60.0149C319.846 55.9369 319.541 55.1219 318.013 55.1219C317.004 55.1219 315.879 55.4219 315.513 55.7889ZM274.291 57.4039C274.021 58.1089 273.922 66.9599 274.073 77.0719C274.275 90.6919 274.67 95.5649 275.596 95.8729C276.568 96.1959 276.846 91.8269 276.846 76.2049C276.846 63.0759 276.489 56.1219 275.815 56.1219C275.247 56.1219 274.562 56.6989 274.291 57.4039ZM281.513 56.7889C280.472 57.8289 280.725 94.9289 281.777 95.5789C282.289 95.8959 282.936 95.7849 283.216 95.3329C283.625 94.6709 284.185 64.6689 283.915 57.8719C283.845 56.0909 282.718 55.5829 281.513 56.7889ZM287.846 61.0489C287.846 65.4999 288.098 66.1219 289.901 66.1219C291.728 66.1219 291.922 65.5959 291.651 61.3809C291.421 57.8089 290.915 56.5579 289.596 56.3079C288.116 56.0269 287.846 56.7569 287.846 61.0489ZM294.846 61.0489C294.846 65.4999 295.098 66.1219 296.901 66.1219C298.728 66.1219 298.922 65.5959 298.651 61.3809C298.421 57.8089 297.915 56.5579 296.596 56.3079C295.116 56.0269 294.846 56.7569 294.846 61.0489ZM301.273 57.4529C300.96 58.2659 300.849 60.4369 301.026 62.2769C301.276 64.8919 301.85 65.6929 303.654 65.9489C305.825 66.2569 305.944 65.9899 305.654 61.4579C305.421 57.8099 304.92 56.5589 303.593 56.3069C302.629 56.1239 301.585 56.6399 301.273 57.4529ZM307.846 61.1219C307.846 65.7889 308.013 66.1219 310.346 66.1219C312.679 66.1219 312.846 65.7889 312.846 61.1219C312.846 56.4549 312.679 56.1219 310.346 56.1219C308.013 56.1219 307.846 56.4549 307.846 61.1219ZM246.846 111.122C246.846 113.872 247.296 116.122 247.846 116.122C248.396 116.122 248.846 113.872 248.846 111.122C248.846 108.372 248.396 106.122 247.846 106.122C247.296 106.122 246.846 108.372 246.846 111.122ZM253.846 111.122C253.846 113.872 254.296 116.122 254.846 116.122C255.396 116.122 255.846 113.872 255.846 111.122C255.846 108.372 255.396 106.122 254.846 106.122C254.296 106.122 253.846 108.372 253.846 111.122ZM260.846 111.122C260.846 113.872 261.296 116.122 261.846 116.122C262.396 116.122 262.846 113.872 262.846 111.122C262.846 108.372 262.396 106.122 261.846 106.122C261.296 106.122 260.846 108.372 260.846 111.122ZM267.305 107.372C266.451 109.606 267.352 115.457 268.615 115.878C269.482 116.167 269.846 114.785 269.846 111.205C269.846 106.512 268.443 104.396 267.305 107.372ZM273.846 111.122C273.846 114.9 274.213 116.122 275.346 116.122C276.479 116.122 276.846 114.9 276.846 111.122C276.846 107.344 276.479 106.122 275.346 106.122C274.213 106.122 273.846 107.344 273.846 111.122ZM280.846 111.122C280.846 114.9 281.213 116.122 282.346 116.122C283.935 116.122 284.028 115.846 284.028 111.122C284.028 106.398 283.935 106.122 282.346 106.122C281.213 106.122 280.846 107.344 280.846 111.122ZM287.846 111.122C287.846 115.455 288.113 116.122 289.846 116.122C291.579 116.122 291.846 115.455 291.846 111.122C291.846 106.789 291.579 106.122 289.846 106.122C288.113 106.122 287.846 106.789 287.846 111.122ZM294.611 108.573C293.802 112.802 294.861 116.122 297.017 116.122C298.705 116.122 298.916 115.51 298.651 111.381C298.431 107.959 297.894 106.554 296.722 106.332C295.655 106.13 294.931 106.898 294.611 108.573ZM301.513 106.789C301.146 107.155 300.846 109.405 300.846 111.789C300.846 115.744 301.064 116.122 303.346 116.122C305.679 116.122 305.846 115.789 305.846 111.122C305.846 106.94 305.546 106.122 304.013 106.122C303.004 106.122 301.879 106.422 301.513 106.789ZM307.846 111.122C307.846 115.789 308.013 116.122 310.346 116.122C312.679 116.122 312.846 115.789 312.846 111.122C312.846 106.455 312.679 106.122 310.346 106.122C308.013 106.122 307.846 106.455 307.846 111.122ZM314.846 111.122C314.846 115.789 315.013 116.122 317.346 116.122C319.679 116.122 319.846 115.789 319.846 111.122C319.846 106.455 319.679 106.122 317.346 106.122C315.013 106.122 314.846 106.455 314.846 111.122ZM321.846 111.122C321.846 115.789 322.013 116.122 324.346 116.122C326.679 116.122 326.846 115.789 326.846 111.122C326.846 106.455 326.679 106.122 324.346 106.122C322.013 106.122 321.846 106.455 321.846 111.122ZM328.17 111.122L328.031 116.122H337.939H347.846V111.122V106.122H338.077H328.309L328.17 111.122ZM334.508 111.372C334.231 112.06 334.004 111.497 334.004 110.122C334.004 108.747 334.231 108.185 334.508 108.872C334.786 109.56 334.786 110.685 334.508 111.372ZM429.841 191.473C420.91 193.883 413.286 200.98 409.278 210.614C407.114 215.815 407.707 227.957 410.402 233.622C412.989 239.061 419.96 245.829 425.65 248.425C431.769 251.217 442.465 251.38 448.846 248.779C459.737 244.339 466.787 234.732 467.602 223.222C468.169 215.204 466.872 210.014 462.744 203.782C458.801 197.829 452.655 193.568 445.219 191.631C438.414 189.859 435.918 189.833 429.841 191.473ZM0.216825 192.598C-0.00517473 193.176 -0.0671834 206.243 0.0798166 221.635L0.345823 249.622L18.8458 249.906C29.0208 250.063 38.3018 249.956 39.4698 249.669C41.0098 249.291 42.5068 246.935 44.9138 241.107L48.2328 233.067L61.2588 233.344L74.2848 233.622L77.3248 240.915C80.4988 248.526 81.8878 250.081 85.5368 250.107C88.9688 250.131 89.1518 248.565 86.4418 242.375C83.7718 236.276 74.4228 214.108 68.7468 200.42C65.3008 192.108 64.4148 191.275 59.7318 191.938C57.3658 192.274 56.3788 194.076 49.3088 210.965C45.0138 221.227 40.2498 232.447 38.7228 235.9L35.9458 242.178L21.6508 241.9L7.35483 241.622L7.69182 217.487C7.95582 198.565 7.74882 193.18 6.73782 192.555C4.81582 191.367 0.678825 191.394 0.216825 192.598ZM89.5958 191.878C88.6338 192.093 87.8668 193.023 87.8928 193.945C87.9188 194.867 91.4158 207.768 95.6638 222.612C103.828 251.143 103.807 251.102 109.302 249.722C111.345 249.21 112.239 246.874 117.389 228.6C120.573 217.3 123.514 208.407 123.924 208.838C124.335 209.269 126.977 217.947 129.797 228.122C132.616 238.297 135.288 247.297 135.735 248.122C136.784 250.058 142.202 250.612 143.571 248.923C144.498 247.779 159.846 195.165 159.846 193.13C159.846 192.048 155.335 190.997 153.581 191.67C152.713 192.003 149.894 200.212 146.369 212.669C143.186 223.918 140.282 233.122 139.917 233.122C139.551 233.122 137.292 226.035 134.897 217.372C127.85 191.892 128.033 192.404 125.744 191.806C120.518 190.439 119.821 191.672 113.71 213.088C110.525 224.25 107.7 233.602 107.431 233.87C107.163 234.138 106.655 233.21 106.303 231.807C105.951 230.404 103.333 221.062 100.485 211.046C95.1188 192.175 94.3488 190.819 89.5958 191.878ZM383.126 191.894L364.906 192.167L364.626 220.645L364.346 249.123H368.061L371.776 249.122L372.061 238.872L372.346 228.622L384.596 228.341L396.846 228.06V224.591V221.122L385.596 221.107C379.409 221.098 373.766 220.724 373.058 220.274C372.115 219.676 371.847 216.8 372.058 209.539L372.346 199.622L387.596 199.346L402.846 199.07V195.655C402.846 193.777 402.509 192.101 402.096 191.931C401.683 191.761 393.147 191.745 383.126 191.894ZM178.846 220.55V249.122H182.306H185.765L186.056 240.872L186.346 232.622L197.08 232.073C206.938 231.568 208.161 231.28 212.071 228.531C218.635 223.918 220.993 219.054 220.606 210.928C220.334 205.227 219.838 203.68 217.259 200.493C211.134 192.926 210.366 192.658 193.777 192.3L178.846 191.978V220.55ZM229.721 194.122C229.652 195.222 229.596 196.797 229.596 197.622C229.596 198.447 229.652 210.372 229.721 224.122L229.846 249.122H250.664H271.482L274.785 241.122L278.088 233.122H291.039H303.99L307.588 241.122C310.344 247.251 311.672 249.15 313.266 249.24C315.47 249.366 318.181 249.089 318.593 248.696C318.729 248.567 313.542 235.897 307.067 220.541L295.293 192.622L291.319 192.335L287.346 192.048L278.418 213.335C273.507 225.043 268.654 236.322 267.633 238.399L265.778 242.176L251.562 241.899L237.346 241.622L237.079 216.872L236.811 192.122H233.329C230.554 192.122 229.821 192.529 229.721 194.122ZM317.033 195.372L317.346 198.622L325.596 198.912L333.846 199.203V224.049V248.895L336.823 249.332C338.46 249.572 340.252 249.489 340.805 249.148C341.421 248.766 341.913 239.081 342.078 224.074L342.346 199.622L350.596 199.332L358.846 199.041V195.582V192.122H337.783H316.719L317.033 195.372ZM476.626 220.623L476.346 249.123H480.061L483.776 249.122L484.061 238.872L484.346 228.622L488.879 228.326C494.111 227.985 494.298 228.145 503.262 240.622C508.433 247.819 509.402 248.679 512.917 249.188C515.066 249.499 517.242 249.495 517.754 249.179C518.265 248.863 515.57 244.384 511.765 239.226C507.959 234.067 504.846 229.499 504.846 229.074C504.846 228.648 506.762 227.373 509.105 226.239C521.542 220.218 522.37 201.616 510.51 194.665C506.396 192.255 505.408 192.122 491.538 192.122H476.906L476.626 220.623ZM523.846 220.622C523.846 238.881 524.205 249.162 524.846 249.233C525.396 249.294 526.746 249.344 527.846 249.344C528.946 249.344 530.29 249.294 530.832 249.233C531.446 249.164 531.795 241.538 531.758 229.029C531.725 217.978 531.9 208.734 532.147 208.487C532.394 208.241 536.522 214.357 541.32 222.08C546.118 229.803 550.337 236.107 550.695 236.088C551.053 236.069 555.171 229.79 559.846 222.135C564.521 214.479 568.683 208.195 569.096 208.169C569.509 208.143 569.846 217.314 569.846 228.549C569.846 250.8 569.722 250.352 575.596 249.294L577.846 248.889V220.448V192.007L573.612 192.315L569.378 192.622L560.641 206.543C555.836 214.2 551.515 220.853 551.04 221.328C550.556 221.812 546.122 215.597 540.933 207.157L531.69 192.122H527.768H523.846V220.622ZM447.23 200.172C452.391 202.598 454.878 205.105 457.865 210.893C461.023 217.01 460.425 227.137 456.563 232.974C450.977 241.414 439.896 245.274 430.321 242.114C421.178 239.096 413.976 227.56 415.347 218.129C416.52 210.063 422.62 202.13 429.876 199.235C434.187 197.514 442.534 197.965 447.23 200.172ZM206.387 201.142C212.072 203.894 214.68 209.396 212.984 215.057C212.338 217.212 210.433 220.133 208.751 221.548C205.915 223.935 204.971 224.122 195.769 224.122H185.846V212.289C185.846 205.78 186.146 200.155 186.513 199.789C186.879 199.422 190.562 199.122 194.697 199.122C200.196 199.122 203.335 199.665 206.387 201.142ZM506.535 201.074C513.978 205.612 512.353 217.776 503.993 220.098C499.994 221.209 487.941 221.479 485.428 220.515C484.135 220.019 483.846 218.128 483.846 210.182C483.846 204.832 484.146 200.155 484.513 199.789C484.879 199.422 489.267 199.124 494.263 199.126C501.495 199.129 503.996 199.526 506.535 201.074ZM295.749 213.122C298 218.347 299.842 223.185 299.844 223.872C299.845 224.78 297.381 225.122 290.846 225.122C285.896 225.122 281.846 224.937 281.846 224.711C281.846 224.484 283.464 220.547 285.441 215.961C287.418 211.374 289.456 206.547 289.969 205.233C290.482 203.92 291.072 203.02 291.28 203.233C291.487 203.447 293.499 207.897 295.749 213.122ZM66.4548 214.93L70.7168 225.122H61.1978C55.9628 225.122 51.8288 224.761 52.0128 224.32C52.1958 223.878 54.1458 219.16 56.3458 213.835C58.5458 208.51 60.7608 204.284 61.2688 204.445C61.7768 204.606 64.1098 209.324 66.4548 214.93Z" fill="#BB1818"/>
</svg>
